<?xml version="1.0" standalone="no"?>
<!DOCTYPE svg PUBLIC "-//W3C//DTD SVG 20010904//EN"
 "http://www.w3.org/TR/2001/REC-SVG-20010904/DTD/svg10.dtd">
<svg version="1.0" xmlns="http://www.w3.org/2000/svg"
 width="512.000000pt" height="512.000000pt" viewBox="0 0 512.000000 512.000000"
 preserveAspectRatio="xMidYMid meet">
<metadata>
Created by potrace 1.11, written by Peter Selinger 2001-2013
</metadata>
<g transform="translate(0.000000,512.000000) scale(0.100000,-0.100000)"
fill="#000000" stroke="none">
<path d="M199 5104 c-62 -19 -131 -82 -157 -142 -37 -85 -44 -176 -39 -461 4
-229 7 -278 26 -350 42 -165 140 -338 267 -471 l72 -75 -39 -80 c-120 -245
-222 -581 -273 -905 -41 -260 -66 -636 -47 -708 24 -87 124 -160 206 -150 32
4 34 2 29 -17 -4 -11 -12 -31 -19 -45 -23 -47 -83 -245 -101 -335 -22 -107
-25 -356 -6 -423 14 -47 61 -106 101 -127 86 -44 159 -27 263 59 40 34 88 71
105 84 l31 22 7 -55 c20 -167 94 -350 195 -483 102 -135 285 -289 373 -313 77
-20 166 15 214 84 27 39 28 45 34 221 6 153 23 320 35 335 2 2 20 -11 41 -30
21 -19 60 -48 86 -64 40 -25 55 -44 89 -110 58 -116 120 -199 218 -295 150
-146 336 -236 540 -261 401 -48 763 157 973 550 39 72 52 88 108 125 35 24 73
53 83 65 11 11 22 21 26 21 14 0 32 -157 39 -336 6 -176 7 -182 34 -221 48
-69 137 -104 214 -84 88 24 271 178 373 313 100 132 175 318 195 483 l7 55 31
-22 c17 -13 65 -50 105 -84 104 -86 177 -103 263 -59 40 21 87 80 101 127 19
67 16 316 -6 423 -18 90 -78 288 -101 335 -7 14 -15 34 -19 45 -5 19 -3 21 29
17 82 -10 182 63 205 149 32 117 -44 218 -225 300 -131 59 -399 112 -487 95
-93 -17 -164 -114 -156 -211 4 -46 15 -69 85 -177 44 -67 102 -166 128 -218
47 -93 115 -259 115 -279 0 -6 -50 14 -111 44 -84 41 -123 55 -156 55 -77 0
-146 -40 -181 -105 -14 -25 -17 -65 -17 -235 0 -184 -3 -213 -24 -288 -13 -45
-27 -84 -31 -87 -4 -3 -11 16 -15 42 -11 73 -61 237 -105 348 -93 231 -148
295 -257 303 -47 3 -67 -1 -103 -20 -70 -38 -100 -89 -111 -189 -17 -147 -82
-245 -205 -305 -51 -25 -70 -29 -144 -29 -71 0 -95 5 -142 27 -71 33 -142 103
-174 171 -30 66 -30 80 3 124 42 55 189 179 263 224 107 63 104 51 110 424 l5
320 215 117 c271 147 317 190 376 352 34 95 39 164 14 204 -20 33 -54 52 -93
52 -12 0 -209 -103 -437 -228 -371 -204 -418 -233 -445 -271 l-30 -43 -3 -307
-3 -307 -102 -24 c-115 -28 -102 -28 -222 -2 l-90 19 -5 309 c-5 302 -6 310
-28 346 -13 21 -35 46 -50 56 -15 11 -208 117 -430 237 -365 197 -406 217
-439 212 -42 -7 -67 -27 -84 -69 -17 -41 12 -172 57 -259 54 -102 96 -135 344
-272 l225 -123 5 -320 c6 -372 3 -362 103 -420 79 -46 165 -115 244 -196 l62
-63 -18 -52 c-34 -99 -100 -171 -198 -215 -75 -35 -199 -32 -277 7 -122 59
-188 157 -205 304 -11 100 -41 151 -111 189 -36 19 -56 23 -103 20 -109 -8
-164 -72 -257 -303 -44 -111 -94 -275 -105 -348 -4 -26 -11 -45 -15 -42 -4 3
-18 42 -31 87 -21 75 -24 104 -24 288 0 170 -3 210 -17 235 -35 65 -104 105
-181 105 -33 0 -72 -14 -156 -55 -61 -30 -111 -50 -111 -44 0 20 68 186 115
279 26 52 84 151 129 220 81 124 81 124 81 191 0 59 -4 73 -30 110 -16 23 -50
53 -75 67 -41 22 -52 23 -135 18 -49 -4 -119 -12 -154 -20 l-64 -13 7 80 c10
115 51 353 87 495 61 247 150 469 261 649 41 66 52 95 56 137 6 70 -22 133
-74 172 -184 135 -293 278 -334 439 -16 64 -20 111 -20 262 0 112 4 183 10
183 27 0 639 -178 653 -190 4 -4 -31 -35 -77 -70 -131 -96 -163 -177 -112
-287 36 -76 88 -108 177 -108 61 0 72 3 116 34 214 153 318 210 471 260 212
70 362 81 642 51 229 -25 362 -24 605 6 119 15 159 16 265 6 274 -25 474 -102
724 -281 105 -74 140 -88 209 -77 64 10 115 49 143 109 51 110 19 191 -112
287 l-85 64 58 18 c91 29 564 165 601 173 l32 7 0 -184 c0 -192 -10 -259 -49
-351 -48 -113 -147 -232 -266 -321 -91 -69 -120 -120 -113 -201 3 -41 14 -69
42 -112 50 -80 141 -260 177 -352 17 -42 50 -143 74 -224 48 -165 59 -186 114
-222 92 -62 223 -32 278 63 21 36 28 59 27 102 -1 98 -118 448 -215 641 l-38
76 51 49 c128 124 247 330 290 499 21 84 23 111 23 395 0 261 -3 313 -17 361
-33 106 -105 178 -201 200 -53 11 -61 10 -283 -51 -126 -34 -432 -120 -681
-191 l-452 -128 -88 19 c-48 11 -151 25 -228 32 -127 10 -159 9 -335 -10 -243
-27 -315 -27 -560 0 -175 19 -209 20 -335 9 -77 -6 -177 -19 -223 -30 l-82
-18 -358 103 c-510 146 -980 274 -1006 273 -11 0 -42 -7 -67 -15z m2424 -4370
c64 -58 210 -138 272 -150 20 -3 37 -10 40 -14 9 -14 -77 -80 -151 -116 -144
-69 -308 -69 -449 0 -73 36 -159 102 -150 116 3 4 20 11 40 14 63 12 208 93
270 150 33 30 62 55 63 56 2 0 32 -25 65 -56z"/>
<path d="M2345 4079 c-280 -26 -660 -126 -809 -213 -59 -35 -101 -115 -94
-181 12 -101 84 -175 180 -182 44 -4 70 2 148 32 208 81 411 128 643 147 299
25 631 -27 937 -147 78 -30 104 -36 148 -32 96 7 168 81 180 182 7 66 -35 146
-94 181 -106 62 -355 140 -574 179 -237 43 -451 54 -665 34z"/>
<path d="M2435 3363 c-145 -19 -323 -74 -380 -117 -102 -78 -96 -245 11 -319
61 -42 115 -46 211 -12 204 71 357 72 554 4 105 -35 141 -36 205 -4 123 61
148 214 50 311 -96 96 -429 166 -651 137z"/>
</g>
</svg>
