<?xml version="1.0" encoding="utf-8"?>
<!-- Generator: Adobe Illustrator 22.1.0, SVG Export Plug-In . SVG Version: 6.00 Build 0)  -->
<svg version="1.1" xmlns="http://www.w3.org/2000/svg" xmlns:xlink="http://www.w3.org/1999/xlink" x="0px" y="0px"
	 viewBox="0 0 750 500" style="enable-background:new 0 0 750 500;" xml:space="preserve">
<style type="text/css">
	.st0{display:none;}
	.st1{display:inline;fill:url(#SVGID_1_);}
	.st2{clip-path:url(#SVGID_3_);}
	.st3{fill:#00FF8C;}
	.st4{opacity:0.9091;fill:#07FF90;}
	.st5{opacity:0.8182;fill:#0DFF94;}
	.st6{opacity:0.7273;fill:#14FF99;}
	.st7{opacity:0.6364;fill:#1BFF9D;}
	.st8{opacity:0.5455;fill:#22FFA1;}
	.st9{opacity:0.4545;fill:#28FFA5;}
	.st10{opacity:0.3636;fill:#2FFFA9;}
	.st11{opacity:0.2727;fill:#36FFAD;}
	.st12{opacity:0.1818;fill:#3DFFB2;}
	.st13{opacity:9.090900e-02;fill:#43FFB6;}
	.st14{opacity:0;fill:#4AFFBA;}
	.st15{opacity:0.8333;fill:#0CFF94;}
	.st16{opacity:0.6667;fill:#19FF9B;}
	.st17{opacity:0.5;fill:#25FFA3;}
	.st18{opacity:0.3333;fill:#31FFAB;}
	.st19{opacity:0.1667;fill:#3EFFB2;}
	.st20{opacity:0.3;clip-path:url(#SVGID_3_);}
	.st21{fill:none;stroke:#00FF8C;stroke-miterlimit:10;}
</style>
<g id="BACKGROUND" class="st0">
	<linearGradient id="SVGID_1_" gradientUnits="userSpaceOnUse" x1="375" y1="366.9635" x2="375" y2="40.7775">
		<stop  offset="0" style="stop-color:#001116"/>
		<stop  offset="1" style="stop-color:#001A1A"/>
	</linearGradient>
	<rect class="st1" width="750" height="500"/>
</g>
<g id="OBJECTS">
	<g>
		<defs>
			<rect id="SVGID_2_" width="750" height="500"/>
		</defs>
		<clipPath id="SVGID_3_">
			<use xlink:href="#SVGID_2_"  style="overflow:visible;"/>
		</clipPath>
		<g class="st2">
			<rect x="593.6" y="205.1" class="st3" width="14.9" height="14.9"/>
			<rect x="594.2" y="183.9" class="st4" width="13.8" height="13.8"/>
			<rect x="594.7" y="164.1" class="st5" width="12.7" height="12.7"/>
			<rect x="595.2" y="145.7" class="st6" width="11.7" height="11.7"/>
			<rect x="595.8" y="128.8" class="st7" width="10.6" height="10.6"/>
			<rect x="596.3" y="113.4" class="st8" width="9.5" height="9.5"/>
			<rect x="596.9" y="99.5" class="st9" width="8.4" height="8.4"/>
			<rect x="597.4" y="87.2" class="st10" width="7.4" height="7.4"/>
			<rect x="597.9" y="76.6" class="st11" width="6.3" height="6.3"/>
			<rect x="598.5" y="67.5" class="st12" width="5.2" height="5.2"/>
			<rect x="599" y="60.2" class="st13" width="4.2" height="4.2"/>
			<rect x="599.5" y="54.6" class="st14" width="3.1" height="3.1"/>
		</g>
		<g class="st2">
			<rect x="364.6" y="189.4" class="st3" width="14.9" height="14.9"/>
			<rect x="365.1" y="168.2" class="st4" width="13.8" height="13.8"/>
			<rect x="365.6" y="148.4" class="st5" width="12.7" height="12.7"/>
			<rect x="366.2" y="130.1" class="st6" width="11.7" height="11.7"/>
			<rect x="366.7" y="113.2" class="st7" width="10.6" height="10.6"/>
			<rect x="367.2" y="97.8" class="st8" width="9.5" height="9.5"/>
			<rect x="367.8" y="83.9" class="st9" width="8.4" height="8.4"/>
			<rect x="368.3" y="71.6" class="st10" width="7.4" height="7.4"/>
			<rect x="368.9" y="60.9" class="st11" width="6.3" height="6.3"/>
			<rect x="369.4" y="51.9" class="st12" width="5.2" height="5.2"/>
			<rect x="369.9" y="44.6" class="st13" width="4.2" height="4.2"/>
			<rect x="370.5" y="38.9" class="st14" width="3.1" height="3.1"/>
		</g>
		<g class="st2">
			<rect x="52.8" y="204.6" class="st3" width="14.9" height="14.9"/>
			<rect x="53.3" y="183.5" class="st4" width="13.8" height="13.8"/>
			<rect x="53.8" y="163.7" class="st5" width="12.7" height="12.7"/>
			<rect x="54.4" y="145.3" class="st6" width="11.7" height="11.7"/>
			<rect x="54.9" y="128.4" class="st7" width="10.6" height="10.6"/>
			<rect x="55.4" y="113" class="st8" width="9.5" height="9.5"/>
			<rect x="56" y="99.1" class="st9" width="8.4" height="8.4"/>
			<rect x="56.5" y="86.8" class="st10" width="7.4" height="7.4"/>
			<rect x="57.1" y="76.2" class="st11" width="6.3" height="6.3"/>
			<rect x="57.6" y="67.1" class="st12" width="5.2" height="5.2"/>
			<rect x="58.1" y="59.8" class="st13" width="4.2" height="4.2"/>
			<rect x="58.7" y="54.2" class="st14" width="3.1" height="3.1"/>
		</g>
		<g class="st2">
			<rect x="668.8" y="263.4" class="st3" width="14.9" height="14.9"/>
			<rect x="669.3" y="242.2" class="st4" width="13.8" height="13.8"/>
			<rect x="669.9" y="222.4" class="st5" width="12.7" height="12.7"/>
			<rect x="670.4" y="204.1" class="st6" width="11.7" height="11.7"/>
			<rect x="671" y="187.2" class="st7" width="10.6" height="10.6"/>
			<rect x="671.5" y="171.8" class="st8" width="9.5" height="9.5"/>
			<rect x="672" y="157.9" class="st9" width="8.4" height="8.4"/>
			<rect x="672.6" y="145.6" class="st10" width="7.4" height="7.4"/>
			<rect x="673.1" y="134.9" class="st11" width="6.3" height="6.3"/>
			<rect x="673.6" y="125.9" class="st12" width="5.2" height="5.2"/>
			<rect x="674.2" y="118.6" class="st13" width="4.2" height="4.2"/>
			<rect x="674.7" y="112.9" class="st14" width="3.1" height="3.1"/>
		</g>
		<g class="st2">
			<rect x="564.8" y="49.9" class="st3" width="14.9" height="14.9"/>
			<rect x="565.3" y="28.7" class="st4" width="13.8" height="13.8"/>
			<rect x="565.8" y="8.9" class="st5" width="12.7" height="12.7"/>
			<rect x="566.4" y="-9.5" class="st6" width="11.7" height="11.7"/>
			<rect x="566.9" y="-26.4" class="st7" width="10.6" height="10.6"/>
			<rect x="567.4" y="-41.8" class="st8" width="9.5" height="9.5"/>
			<rect x="568" y="-55.6" class="st9" width="8.4" height="8.4"/>
			<rect x="568.5" y="-67.9" class="st10" width="7.4" height="7.4"/>
			<rect x="569.1" y="-78.6" class="st11" width="6.3" height="6.3"/>
			<rect x="569.6" y="-87.6" class="st12" width="5.2" height="5.2"/>
			<rect x="570.1" y="-95" class="st13" width="4.2" height="4.2"/>
			<rect x="570.7" y="-100.6" class="st14" width="3.1" height="3.1"/>
		</g>
		<g class="st2">
			<rect x="299.2" y="234.8" class="st3" width="9.7" height="9.7"/>
			<rect x="299.6" y="220.9" class="st4" width="9" height="9"/>
			<rect x="299.9" y="208" class="st5" width="8.3" height="8.3"/>
			<rect x="300.3" y="195.9" class="st6" width="7.6" height="7.6"/>
			<rect x="300.6" y="184.8" class="st7" width="6.9" height="6.9"/>
			<rect x="301" y="174.8" class="st8" width="6.2" height="6.2"/>
			<rect x="301.3" y="165.7" class="st9" width="5.5" height="5.5"/>
			<rect x="301.7" y="157.6" class="st10" width="4.8" height="4.8"/>
			<rect x="302" y="150.6" class="st11" width="4.1" height="4.1"/>
			<rect x="302.4" y="144.7" class="st12" width="3.4" height="3.4"/>
			<rect x="302.7" y="139.9" class="st13" width="2.7" height="2.7"/>
			<rect x="303.1" y="136.2" class="st14" width="2" height="2"/>
		</g>
		<g class="st2">
			<rect x="341.1" y="65.3" class="st3" width="9.7" height="9.7"/>
			<rect x="341.5" y="51.4" class="st4" width="9" height="9"/>
			<rect x="341.8" y="38.4" class="st5" width="8.3" height="8.3"/>
			<rect x="342.2" y="26.4" class="st6" width="7.6" height="7.6"/>
			<rect x="342.5" y="15.3" class="st7" width="6.9" height="6.9"/>
			<rect x="342.9" y="5.2" class="st8" width="6.2" height="6.2"/>
			<rect x="343.2" y="-3.8" class="st9" width="5.5" height="5.5"/>
			<rect x="343.6" y="-11.9" class="st10" width="4.8" height="4.8"/>
			<rect x="343.9" y="-18.9" class="st11" width="4.1" height="4.1"/>
			<rect x="344.3" y="-24.8" class="st12" width="3.4" height="3.4"/>
			<rect x="344.6" y="-29.6" class="st13" width="2.7" height="2.7"/>
			<rect x="345" y="-33.3" class="st14" width="2" height="2"/>
		</g>
		<g class="st2">
			<rect x="273.8" y="141.3" class="st3" width="5.8" height="5.8"/>
			<rect x="274.1" y="133.1" class="st4" width="5.4" height="5.4"/>
			<rect x="274.3" y="125.4" class="st5" width="4.9" height="4.9"/>
			<rect x="274.5" y="118.3" class="st6" width="4.5" height="4.5"/>
			<rect x="274.7" y="111.8" class="st7" width="4.1" height="4.1"/>
			<rect x="274.9" y="105.8" class="st8" width="3.7" height="3.7"/>
			<rect x="275.1" y="100.4" class="st9" width="3.3" height="3.3"/>
			<rect x="275.3" y="95.7" class="st10" width="2.9" height="2.9"/>
			<rect x="275.5" y="91.5" class="st11" width="2.4" height="2.4"/>
			<rect x="275.7" y="88" class="st12" width="2" height="2"/>
			<rect x="275.9" y="85.2" class="st13" width="1.6" height="1.6"/>
			<rect x="276.1" y="83" class="st14" width="1.2" height="1.2"/>
		</g>
		<g class="st2">
			<rect x="528.7" y="29.8" class="st3" width="5.8" height="5.8"/>
			<rect x="528.9" y="21.6" class="st4" width="5.4" height="5.4"/>
			<rect x="529.1" y="13.9" class="st5" width="4.9" height="4.9"/>
			<rect x="529.3" y="6.8" class="st6" width="4.5" height="4.5"/>
			<rect x="529.5" y="0.3" class="st7" width="4.1" height="4.1"/>
			<rect x="529.7" y="-5.7" class="st8" width="3.7" height="3.7"/>
			<rect x="529.9" y="-11.1" class="st9" width="3.3" height="3.3"/>
			<rect x="530.1" y="-15.9" class="st10" width="2.9" height="2.9"/>
			<rect x="530.3" y="-20" class="st11" width="2.4" height="2.4"/>
			<rect x="530.5" y="-23.5" class="st12" width="2" height="2"/>
			<rect x="530.7" y="-26.3" class="st13" width="1.6" height="1.6"/>
			<rect x="531" y="-28.5" class="st14" width="1.2" height="1.2"/>
		</g>
		<g class="st2">
			<rect x="701" y="241.7" class="st3" width="5.8" height="5.8"/>
			<rect x="701.3" y="233.4" class="st4" width="5.4" height="5.4"/>
			<rect x="701.5" y="225.8" class="st5" width="4.9" height="4.9"/>
			<rect x="701.7" y="218.7" class="st6" width="4.5" height="4.5"/>
			<rect x="701.9" y="212.1" class="st7" width="4.1" height="4.1"/>
			<rect x="702.1" y="206.1" class="st8" width="3.7" height="3.7"/>
			<rect x="702.3" y="200.8" class="st9" width="3.3" height="3.3"/>
			<rect x="702.5" y="196" class="st10" width="2.9" height="2.9"/>
			<rect x="702.7" y="191.8" class="st11" width="2.4" height="2.4"/>
			<rect x="702.9" y="188.3" class="st12" width="2" height="2"/>
			<rect x="703.1" y="185.5" class="st13" width="1.6" height="1.6"/>
			<rect x="703.3" y="183.3" class="st14" width="1.2" height="1.2"/>
		</g>
		<g class="st2">
			<rect x="667.5" y="52.3" class="st3" width="5.8" height="5.8"/>
			<rect x="667.7" y="44.1" class="st4" width="5.4" height="5.4"/>
			<rect x="667.9" y="36.4" class="st5" width="4.9" height="4.9"/>
			<rect x="668.1" y="29.3" class="st6" width="4.5" height="4.5"/>
			<rect x="668.3" y="22.7" class="st7" width="4.1" height="4.1"/>
			<rect x="668.5" y="16.7" class="st8" width="3.7" height="3.7"/>
			<rect x="668.7" y="11.4" class="st9" width="3.3" height="3.3"/>
			<rect x="668.9" y="6.6" class="st10" width="2.9" height="2.9"/>
			<rect x="669.1" y="2.5" class="st11" width="2.4" height="2.4"/>
			<rect x="669.3" y="-1" class="st12" width="2" height="2"/>
			<rect x="669.5" y="-3.9" class="st13" width="1.6" height="1.6"/>
			<rect x="669.7" y="-6.1" class="st14" width="1.2" height="1.2"/>
		</g>
		<g class="st2">
			<rect x="208.8" y="36.7" class="st3" width="5.8" height="5.8"/>
			<rect x="209.1" y="28.5" class="st4" width="5.4" height="5.4"/>
			<rect x="209.3" y="20.8" class="st5" width="4.9" height="4.9"/>
			<rect x="209.5" y="13.7" class="st6" width="4.5" height="4.5"/>
			<rect x="209.7" y="7.1" class="st7" width="4.1" height="4.1"/>
			<rect x="209.9" y="1.1" class="st8" width="3.7" height="3.7"/>
			<rect x="210.1" y="-4.2" class="st9" width="3.3" height="3.3"/>
			<rect x="210.3" y="-9" class="st10" width="2.9" height="2.9"/>
			<rect x="210.5" y="-13.1" class="st11" width="2.4" height="2.4"/>
			<rect x="210.7" y="-16.6" class="st12" width="2" height="2"/>
			<rect x="210.9" y="-19.5" class="st13" width="1.6" height="1.6"/>
			<rect x="211.1" y="-21.7" class="st14" width="1.2" height="1.2"/>
		</g>
		<g class="st2">
			<rect x="164.6" y="205.3" class="st3" width="5.8" height="5.8"/>
			<rect x="164.8" y="197.1" class="st4" width="5.4" height="5.4"/>
			<rect x="165" y="189.4" class="st5" width="4.9" height="4.9"/>
			<rect x="165.2" y="182.3" class="st6" width="4.5" height="4.5"/>
			<rect x="165.4" y="175.7" class="st7" width="4.1" height="4.1"/>
			<rect x="165.6" y="169.7" class="st8" width="3.7" height="3.7"/>
			<rect x="165.8" y="164.4" class="st9" width="3.3" height="3.3"/>
			<rect x="166" y="159.6" class="st10" width="2.9" height="2.9"/>
			<rect x="166.2" y="155.5" class="st11" width="2.4" height="2.4"/>
			<rect x="166.4" y="152" class="st12" width="2" height="2"/>
			<rect x="166.6" y="149.1" class="st13" width="1.6" height="1.6"/>
			<rect x="166.9" y="146.9" class="st14" width="1.2" height="1.2"/>
		</g>
		<g class="st2">
			<rect x="79.3" y="30" class="st3" width="5.8" height="5.8"/>
			<rect x="79.5" y="21.8" class="st4" width="5.4" height="5.4"/>
			<rect x="79.7" y="14.1" class="st5" width="4.9" height="4.9"/>
			<rect x="79.9" y="7" class="st6" width="4.5" height="4.5"/>
			<rect x="80.1" y="0.4" class="st7" width="4.1" height="4.1"/>
			<rect x="80.3" y="-5.5" class="st8" width="3.7" height="3.7"/>
			<rect x="80.5" y="-10.9" class="st9" width="3.3" height="3.3"/>
			<rect x="80.7" y="-15.7" class="st10" width="2.9" height="2.9"/>
			<rect x="80.9" y="-19.8" class="st11" width="2.4" height="2.4"/>
			<rect x="81.1" y="-23.3" class="st12" width="2" height="2"/>
			<rect x="81.3" y="-26.2" class="st13" width="1.6" height="1.6"/>
			<rect x="81.5" y="-28.4" class="st14" width="1.2" height="1.2"/>
		</g>
		<g class="st2">
			<rect x="81.9" y="252" class="st3" width="5.8" height="5.8"/>
			<rect x="82.1" y="243.7" class="st4" width="5.4" height="5.4"/>
			<rect x="82.3" y="236.1" class="st5" width="4.9" height="4.9"/>
			<rect x="82.5" y="228.9" class="st6" width="4.5" height="4.5"/>
			<rect x="82.7" y="222.4" class="st7" width="4.1" height="4.1"/>
			<rect x="82.9" y="216.4" class="st8" width="3.7" height="3.7"/>
			<rect x="83.1" y="211" class="st9" width="3.3" height="3.3"/>
			<rect x="83.3" y="206.3" class="st10" width="2.9" height="2.9"/>
			<rect x="83.5" y="202.1" class="st11" width="2.4" height="2.4"/>
			<rect x="83.7" y="198.6" class="st12" width="2" height="2"/>
			<rect x="83.9" y="195.8" class="st13" width="1.6" height="1.6"/>
			<rect x="84.1" y="193.6" class="st14" width="1.2" height="1.2"/>
		</g>
		<g class="st2">
			<rect x="150.6" y="315.8" class="st3" width="9.7" height="9.7"/>
			<rect x="150.9" y="301.9" class="st4" width="9" height="9"/>
			<rect x="151.3" y="289" class="st5" width="8.3" height="8.3"/>
			<rect x="151.6" y="276.9" class="st6" width="7.6" height="7.6"/>
			<rect x="152" y="265.9" class="st7" width="6.9" height="6.9"/>
			<rect x="152.3" y="255.8" class="st8" width="6.2" height="6.2"/>
			<rect x="152.7" y="246.7" class="st9" width="5.5" height="5.5"/>
			<rect x="153" y="238.6" class="st10" width="4.8" height="4.8"/>
			<rect x="153.4" y="231.6" class="st11" width="4.1" height="4.1"/>
			<rect x="153.7" y="225.7" class="st12" width="3.4" height="3.4"/>
			<rect x="154.1" y="220.9" class="st13" width="2.7" height="2.7"/>
			<rect x="154.4" y="217.2" class="st14" width="2" height="2"/>
		</g>
		<g class="st2">
			<rect x="180" y="75.6" class="st3" width="9.7" height="9.7"/>
			<rect x="180.4" y="61.7" class="st4" width="9" height="9"/>
			<rect x="180.7" y="48.7" class="st5" width="8.3" height="8.3"/>
			<rect x="181.1" y="36.7" class="st6" width="7.6" height="7.6"/>
			<rect x="181.4" y="25.6" class="st7" width="6.9" height="6.9"/>
			<rect x="181.8" y="15.5" class="st8" width="6.2" height="6.2"/>
			<rect x="182.1" y="6.4" class="st9" width="5.5" height="5.5"/>
			<rect x="182.5" y="-1.6" class="st10" width="4.8" height="4.8"/>
			<rect x="182.8" y="-8.6" class="st11" width="4.1" height="4.1"/>
			<rect x="183.2" y="-14.5" class="st12" width="3.4" height="3.4"/>
			<rect x="183.5" y="-19.3" class="st13" width="2.7" height="2.7"/>
			<rect x="183.9" y="-23" class="st14" width="2" height="2"/>
		</g>
		<g class="st2">
			<rect x="404.7" y="79.9" class="st3" width="14.9" height="14.9"/>
			<rect x="405.2" y="58.7" class="st4" width="13.8" height="13.8"/>
			<rect x="405.8" y="38.9" class="st5" width="12.7" height="12.7"/>
			<rect x="406.3" y="20.5" class="st6" width="11.7" height="11.7"/>
			<rect x="406.8" y="3.6" class="st7" width="10.6" height="10.6"/>
			<rect x="407.4" y="-11.8" class="st8" width="9.5" height="9.5"/>
			<rect x="407.9" y="-25.7" class="st9" width="8.4" height="8.4"/>
			<rect x="408.4" y="-38" class="st10" width="7.4" height="7.4"/>
			<rect x="409" y="-48.6" class="st11" width="6.3" height="6.3"/>
			<rect x="409.5" y="-57.7" class="st12" width="5.2" height="5.2"/>
			<rect x="410.1" y="-65" class="st13" width="4.2" height="4.2"/>
			<rect x="410.6" y="-70.6" class="st14" width="3.1" height="3.1"/>
		</g>
		<g class="st2">
			<rect x="504.6" y="129.3" class="st3" width="14.9" height="14.9"/>
			<rect x="505.1" y="108.1" class="st4" width="13.8" height="13.8"/>
			<rect x="505.7" y="88.3" class="st5" width="12.7" height="12.7"/>
			<rect x="506.2" y="69.9" class="st6" width="11.7" height="11.7"/>
			<rect x="506.7" y="53" class="st7" width="10.6" height="10.6"/>
			<rect x="507.3" y="37.6" class="st8" width="9.5" height="9.5"/>
			<rect x="507.8" y="23.7" class="st9" width="8.4" height="8.4"/>
			<rect x="508.4" y="11.4" class="st10" width="7.4" height="7.4"/>
			<rect x="508.9" y="0.8" class="st11" width="6.3" height="6.3"/>
			<rect x="509.4" y="-8.3" class="st12" width="5.2" height="5.2"/>
			<rect x="510" y="-15.6" class="st13" width="4.2" height="4.2"/>
			<rect x="510.5" y="-21.2" class="st14" width="3.1" height="3.1"/>
		</g>
		<g class="st2">
			<rect x="11.8" y="90.7" class="st3" width="14.9" height="14.9"/>
			<rect x="12.4" y="69.5" class="st4" width="13.8" height="13.8"/>
			<rect x="12.9" y="49.8" class="st5" width="12.7" height="12.7"/>
			<rect x="13.4" y="31.4" class="st6" width="11.7" height="11.7"/>
			<rect x="14" y="14.5" class="st7" width="10.6" height="10.6"/>
			<rect x="14.5" y="-0.9" class="st8" width="9.5" height="9.5"/>
			<rect x="15" y="-14.8" class="st9" width="8.4" height="8.4"/>
			<rect x="15.6" y="-27.1" class="st10" width="7.4" height="7.4"/>
			<rect x="16.1" y="-37.8" class="st11" width="6.3" height="6.3"/>
			<rect x="16.6" y="-46.8" class="st12" width="5.2" height="5.2"/>
			<rect x="17.2" y="-54.1" class="st13" width="4.2" height="4.2"/>
			<rect x="17.7" y="-59.7" class="st14" width="3.1" height="3.1"/>
		</g>
		<g class="st2">
			<rect x="640.5" y="102.7" class="st3" width="14.9" height="14.9"/>
			<rect x="641.1" y="81.5" class="st4" width="13.8" height="13.8"/>
			<rect x="641.6" y="61.7" class="st5" width="12.7" height="12.7"/>
			<rect x="642.2" y="43.4" class="st6" width="11.7" height="11.7"/>
			<rect x="642.7" y="26.5" class="st7" width="10.6" height="10.6"/>
			<rect x="643.2" y="11.1" class="st8" width="9.5" height="9.5"/>
			<rect x="643.8" y="-2.8" class="st9" width="8.4" height="8.4"/>
			<rect x="644.3" y="-15.1" class="st10" width="7.4" height="7.4"/>
			<rect x="644.8" y="-25.8" class="st11" width="6.3" height="6.3"/>
			<rect x="645.4" y="-34.8" class="st12" width="5.2" height="5.2"/>
			<rect x="645.9" y="-42.1" class="st13" width="4.2" height="4.2"/>
			<rect x="646.4" y="-47.8" class="st14" width="3.1" height="3.1"/>
		</g>
		<g class="st2">
			<rect x="445.3" y="230.2" class="st3" width="14.9" height="14.9"/>
			<rect x="445.9" y="209" class="st4" width="13.8" height="13.8"/>
			<rect x="446.4" y="189.2" class="st5" width="12.7" height="12.7"/>
			<rect x="446.9" y="170.8" class="st6" width="11.7" height="11.7"/>
			<rect x="447.5" y="153.9" class="st7" width="10.6" height="10.6"/>
			<rect x="448" y="138.5" class="st8" width="9.5" height="9.5"/>
			<rect x="448.5" y="124.7" class="st9" width="8.4" height="8.4"/>
			<rect x="449.1" y="112.4" class="st10" width="7.4" height="7.4"/>
			<rect x="449.6" y="101.7" class="st11" width="6.3" height="6.3"/>
			<rect x="450.1" y="92.7" class="st12" width="5.2" height="5.2"/>
			<rect x="450.7" y="85.3" class="st13" width="4.2" height="4.2"/>
			<rect x="451.2" y="79.7" class="st14" width="3.1" height="3.1"/>
		</g>
		<g class="st2">
			<rect x="195.9" y="276.8" class="st3" width="14.9" height="14.9"/>
			<rect x="196.4" y="255.6" class="st4" width="13.8" height="13.8"/>
			<rect x="197" y="235.8" class="st5" width="12.7" height="12.7"/>
			<rect x="197.5" y="217.4" class="st6" width="11.7" height="11.7"/>
			<rect x="198" y="200.5" class="st7" width="10.6" height="10.6"/>
			<rect x="198.6" y="185.1" class="st8" width="9.5" height="9.5"/>
			<rect x="199.1" y="171.2" class="st9" width="8.4" height="8.4"/>
			<rect x="199.6" y="159" class="st10" width="7.4" height="7.4"/>
			<rect x="200.2" y="148.3" class="st11" width="6.3" height="6.3"/>
			<rect x="200.7" y="139.3" class="st12" width="5.2" height="5.2"/>
			<rect x="201.2" y="131.9" class="st13" width="4.2" height="4.2"/>
			<rect x="201.8" y="126.3" class="st14" width="3.1" height="3.1"/>
		</g>
		<g class="st2">
			<rect x="227.9" y="181.3" class="st3" width="26.6" height="26.6"/>
			<rect x="228.8" y="143.4" class="st4" width="24.7" height="24.7"/>
			<rect x="229.8" y="108" class="st5" width="22.8" height="22.8"/>
			<rect x="230.8" y="75.2" class="st6" width="20.9" height="20.9"/>
			<rect x="231.7" y="44.9" class="st7" width="18.9" height="18.9"/>
			<rect x="232.7" y="17.4" class="st8" width="17" height="17"/>
			<rect x="233.6" y="-7.4" class="st9" width="15.1" height="15.1"/>
			<rect x="234.6" y="-29.4" class="st10" width="13.2" height="13.2"/>
			<rect x="235.5" y="-48.5" class="st11" width="11.3" height="11.3"/>
			<rect x="236.5" y="-64.6" class="st12" width="9.4" height="9.4"/>
			<rect x="237.5" y="-77.8" class="st13" width="7.4" height="7.4"/>
			<rect x="238.4" y="-87.8" class="st14" width="5.5" height="5.5"/>
		</g>
		<g class="st2">
			<rect x="714.4" y="30.1" class="st3" width="14.9" height="14.9"/>
			<rect x="715" y="8.9" class="st4" width="13.8" height="13.8"/>
			<rect x="715.5" y="-10.9" class="st5" width="12.7" height="12.7"/>
			<rect x="716.1" y="-29.3" class="st6" width="11.7" height="11.7"/>
			<rect x="716.6" y="-46.2" class="st7" width="10.6" height="10.6"/>
			<rect x="717.1" y="-61.6" class="st8" width="9.5" height="9.5"/>
			<rect x="717.7" y="-75.4" class="st9" width="8.4" height="8.4"/>
			<rect x="718.2" y="-87.7" class="st10" width="7.4" height="7.4"/>
			<rect x="718.7" y="-98.4" class="st11" width="6.3" height="6.3"/>
			<rect x="719.3" y="-107.4" class="st12" width="5.2" height="5.2"/>
			<rect x="719.8" y="-114.8" class="st13" width="4.2" height="4.2"/>
			<rect x="720.3" y="-120.4" class="st14" width="3.1" height="3.1"/>
		</g>
		<g class="st2">
			<rect x="630.8" y="219.7" class="st3" width="5.9" height="5.9"/>
			<rect x="631.2" y="204.9" class="st15" width="5.1" height="5.1"/>
			<rect x="631.6" y="191.9" class="st16" width="4.3" height="4.3"/>
			<rect x="631.9" y="180.8" class="st17" width="3.5" height="3.5"/>
			<rect x="632.3" y="171.9" class="st18" width="2.8" height="2.8"/>
			<rect x="632.7" y="165.1" class="st19" width="2" height="2"/>
			<rect x="633.1" y="160.5" class="st14" width="1.2" height="1.2"/>
		</g>
		<g class="st2">
			<rect x="716.6" y="328.1" class="st3" width="5.9" height="5.9"/>
			<rect x="717" y="313.2" class="st15" width="5.1" height="5.1"/>
			<rect x="717.4" y="300.3" class="st16" width="4.3" height="4.3"/>
			<rect x="717.8" y="289.2" class="st17" width="3.5" height="3.5"/>
			<rect x="718.2" y="280.3" class="st18" width="2.8" height="2.8"/>
			<rect x="718.6" y="273.5" class="st19" width="2" height="2"/>
			<rect x="719" y="268.9" class="st14" width="1.2" height="1.2"/>
		</g>
		<g class="st2">
			<rect x="497.2" y="266.8" class="st3" width="5.9" height="5.9"/>
			<rect x="497.6" y="251.9" class="st15" width="5.1" height="5.1"/>
			<rect x="498" y="238.9" class="st16" width="4.3" height="4.3"/>
			<rect x="498.4" y="227.9" class="st17" width="3.5" height="3.5"/>
			<rect x="498.8" y="218.9" class="st18" width="2.8" height="2.8"/>
			<rect x="499.2" y="212.1" class="st19" width="2" height="2"/>
			<rect x="499.5" y="207.6" class="st14" width="1.2" height="1.2"/>
		</g>
		<g class="st2">
			<rect x="383.9" y="28.4" class="st3" width="5.9" height="5.9"/>
			<rect x="384.2" y="13.5" class="st15" width="5.1" height="5.1"/>
			<rect x="384.6" y="0.6" class="st16" width="4.3" height="4.3"/>
			<rect x="385" y="-10.5" class="st17" width="3.5" height="3.5"/>
			<rect x="385.4" y="-19.4" class="st18" width="2.8" height="2.8"/>
			<rect x="385.8" y="-26.2" class="st19" width="2" height="2"/>
			<rect x="386.2" y="-30.8" class="st14" width="1.2" height="1.2"/>
		</g>
		<g class="st2">
			<rect x="329.8" y="326.6" class="st3" width="5.9" height="5.9"/>
			<rect x="330.2" y="311.8" class="st15" width="5.1" height="5.1"/>
			<rect x="330.6" y="298.8" class="st16" width="4.3" height="4.3"/>
			<rect x="331" y="287.7" class="st17" width="3.5" height="3.5"/>
			<rect x="331.4" y="278.8" class="st18" width="2.8" height="2.8"/>
			<rect x="331.8" y="272" class="st19" width="2" height="2"/>
			<rect x="332.2" y="267.4" class="st14" width="1.2" height="1.2"/>
		</g>
		<g class="st2">
			<rect x="55.5" y="345.1" class="st3" width="5.9" height="5.9"/>
			<rect x="55.9" y="330.3" class="st15" width="5.1" height="5.1"/>
			<rect x="56.3" y="317.3" class="st16" width="4.3" height="4.3"/>
			<rect x="56.7" y="306.2" class="st17" width="3.5" height="3.5"/>
			<rect x="57.1" y="297.3" class="st18" width="2.8" height="2.8"/>
			<rect x="57.5" y="290.5" class="st19" width="2" height="2"/>
			<rect x="57.8" y="285.9" class="st14" width="1.2" height="1.2"/>
		</g>
		<g class="st2">
			<rect x="143.5" y="29.3" class="st3" width="10.9" height="10.9"/>
			<rect x="144.2" y="1.7" class="st15" width="9.4" height="9.4"/>
			<rect x="144.9" y="-22.4" class="st16" width="8" height="8"/>
			<rect x="145.7" y="-42.9" class="st17" width="6.6" height="6.6"/>
			<rect x="146.4" y="-59.6" class="st18" width="5.1" height="5.1"/>
			<rect x="147.1" y="-72.2" class="st19" width="3.7" height="3.7"/>
			<rect x="147.8" y="-80.7" class="st14" width="2.3" height="2.3"/>
		</g>
		<g class="st2">
			<rect x="610.1" y="352.5" class="st3" width="5.9" height="5.9"/>
			<rect x="610.5" y="337.7" class="st15" width="5.1" height="5.1"/>
			<rect x="610.8" y="324.7" class="st16" width="4.3" height="4.3"/>
			<rect x="611.2" y="313.7" class="st17" width="3.5" height="3.5"/>
			<rect x="611.6" y="304.7" class="st18" width="2.8" height="2.8"/>
			<rect x="612" y="297.9" class="st19" width="2" height="2"/>
			<rect x="612.4" y="293.3" class="st14" width="1.2" height="1.2"/>
		</g>
		<g class="st2">
			<rect x="549.8" y="79.3" class="st3" width="5.9" height="5.9"/>
			<rect x="550.2" y="64.4" class="st15" width="5.1" height="5.1"/>
			<rect x="550.6" y="51.4" class="st16" width="4.3" height="4.3"/>
			<rect x="550.9" y="40.4" class="st17" width="3.5" height="3.5"/>
			<rect x="551.3" y="31.4" class="st18" width="2.8" height="2.8"/>
			<rect x="551.7" y="24.6" class="st19" width="2" height="2"/>
			<rect x="552.1" y="20.1" class="st14" width="1.2" height="1.2"/>
		</g>
		<g class="st2">
			<rect x="472.2" y="53.5" class="st3" width="7" height="7"/>
			<rect x="472.6" y="35.6" class="st15" width="6.1" height="6.1"/>
			<rect x="473.1" y="20" class="st16" width="5.2" height="5.2"/>
			<rect x="473.6" y="6.7" class="st17" width="4.3" height="4.3"/>
			<rect x="474" y="-4" class="st18" width="3.3" height="3.3"/>
			<rect x="474.5" y="-12.2" class="st19" width="2.4" height="2.4"/>
			<rect x="475" y="-17.7" class="st14" width="1.5" height="1.5"/>
		</g>
		<g class="st2">
			<rect x="286.4" y="47.7" class="st3" width="7" height="7"/>
			<rect x="286.8" y="29.9" class="st15" width="6.1" height="6.1"/>
			<rect x="287.3" y="14.2" class="st16" width="5.2" height="5.2"/>
			<rect x="287.8" y="1" class="st17" width="4.3" height="4.3"/>
			<rect x="288.2" y="-9.8" class="st18" width="3.3" height="3.3"/>
			<rect x="288.7" y="-18" class="st19" width="2.4" height="2.4"/>
			<rect x="289.1" y="-23.5" class="st14" width="1.5" height="1.5"/>
		</g>
		<g class="st2">
			<rect x="144.5" y="151.5" class="st3" width="7" height="7"/>
			<rect x="144.9" y="133.6" class="st15" width="6.1" height="6.1"/>
			<rect x="145.4" y="118" class="st16" width="5.2" height="5.2"/>
			<rect x="145.9" y="104.7" class="st17" width="4.3" height="4.3"/>
			<rect x="146.3" y="93.9" class="st18" width="3.3" height="3.3"/>
			<rect x="146.8" y="85.8" class="st19" width="2.4" height="2.4"/>
			<rect x="147.3" y="80.3" class="st14" width="1.5" height="1.5"/>
		</g>
		<g class="st2">
			<rect x="54.9" y="26.1" class="st3" width="7" height="7"/>
			<rect x="55.3" y="8.2" class="st15" width="6.1" height="6.1"/>
			<rect x="55.8" y="-7.5" class="st16" width="5.2" height="5.2"/>
			<rect x="56.3" y="-20.7" class="st17" width="4.3" height="4.3"/>
			<rect x="56.7" y="-31.5" class="st18" width="3.3" height="3.3"/>
			<rect x="57.2" y="-39.7" class="st19" width="2.4" height="2.4"/>
			<rect x="57.7" y="-45.2" class="st14" width="1.5" height="1.5"/>
		</g>
		<g class="st2">
			<rect x="15.7" y="218.3" class="st3" width="7" height="7"/>
			<rect x="16.2" y="200.4" class="st15" width="6.1" height="6.1"/>
			<rect x="16.6" y="184.8" class="st16" width="5.2" height="5.2"/>
			<rect x="17.1" y="171.5" class="st17" width="4.3" height="4.3"/>
			<rect x="17.6" y="160.7" class="st18" width="3.3" height="3.3"/>
			<rect x="18" y="152.5" class="st19" width="2.4" height="2.4"/>
			<rect x="18.5" y="147" class="st14" width="1.5" height="1.5"/>
		</g>
		<g class="st2">
			<rect x="687.6" y="73.6" class="st3" width="8" height="8"/>
			<rect x="688.1" y="53.2" class="st15" width="7" height="7"/>
			<rect x="688.7" y="35.4" class="st16" width="5.9" height="5.9"/>
			<rect x="689.2" y="20.3" class="st17" width="4.8" height="4.8"/>
			<rect x="689.7" y="8" class="st18" width="3.8" height="3.8"/>
			<rect x="690.3" y="-1.3" class="st19" width="2.7" height="2.7"/>
			<rect x="690.8" y="-7.6" class="st14" width="1.7" height="1.7"/>
		</g>
		<g class="st2">
			<rect x="537.1" y="265.4" class="st3" width="12.9" height="12.9"/>
			<rect x="537.9" y="232.5" class="st15" width="11.2" height="11.2"/>
			<rect x="538.8" y="203.8" class="st16" width="9.5" height="9.5"/>
			<rect x="539.6" y="179.4" class="st17" width="7.8" height="7.8"/>
			<rect x="540.5" y="159.6" class="st18" width="6.1" height="6.1"/>
			<rect x="541.3" y="144.6" class="st19" width="4.4" height="4.4"/>
			<rect x="542.2" y="134.5" class="st14" width="2.7" height="2.7"/>
		</g>
		<g class="st2">
			<rect x="397.7" y="310.9" class="st3" width="12.9" height="12.9"/>
			<rect x="398.5" y="278" class="st15" width="11.2" height="11.2"/>
			<rect x="399.4" y="249.3" class="st16" width="9.5" height="9.5"/>
			<rect x="400.2" y="225" class="st17" width="7.8" height="7.8"/>
			<rect x="401.1" y="205.2" class="st18" width="6.1" height="6.1"/>
			<rect x="401.9" y="190.1" class="st19" width="4.4" height="4.4"/>
			<rect x="402.8" y="180" class="st14" width="2.7" height="2.7"/>
		</g>
		<g class="st2">
			<rect x="305.9" y="79.7" class="st3" width="12.9" height="12.9"/>
			<rect x="306.7" y="46.8" class="st15" width="11.2" height="11.2"/>
			<rect x="307.6" y="18.1" class="st16" width="9.5" height="9.5"/>
			<rect x="308.5" y="-6.2" class="st17" width="7.8" height="7.8"/>
			<rect x="309.3" y="-26" class="st18" width="6.1" height="6.1"/>
			<rect x="310.2" y="-41.1" class="st19" width="4.4" height="4.4"/>
			<rect x="311" y="-51.2" class="st14" width="2.7" height="2.7"/>
		</g>
		<g class="st2">
			<rect x="106.1" y="273.2" class="st3" width="12.9" height="12.9"/>
			<rect x="107" y="240.4" class="st15" width="11.2" height="11.2"/>
			<rect x="107.8" y="211.7" class="st16" width="9.5" height="9.5"/>
			<rect x="108.7" y="187.3" class="st17" width="7.8" height="7.8"/>
			<rect x="109.5" y="167.5" class="st18" width="6.1" height="6.1"/>
			<rect x="110.4" y="152.5" class="st19" width="4.4" height="4.4"/>
			<rect x="111.2" y="142.4" class="st14" width="2.7" height="2.7"/>
		</g>
		<g class="st2">
			<rect x="720" y="209.7" class="st3" width="11.2" height="11.2"/>
			<rect x="720.7" y="181.2" class="st15" width="9.7" height="9.7"/>
			<rect x="721.5" y="156.3" class="st16" width="8.2" height="8.2"/>
			<rect x="722.2" y="135.2" class="st17" width="6.8" height="6.8"/>
			<rect x="723" y="118.1" class="st18" width="5.3" height="5.3"/>
			<rect x="723.7" y="105" class="st19" width="3.8" height="3.8"/>
			<rect x="724.4" y="96.3" class="st14" width="2.3" height="2.3"/>
		</g>
		<g class="st2">
			<rect x="99.1" y="89.6" class="st3" width="11.2" height="11.2"/>
			<rect x="99.8" y="61.2" class="st15" width="9.7" height="9.7"/>
			<rect x="100.6" y="36.3" class="st16" width="8.2" height="8.2"/>
			<rect x="101.3" y="15.2" class="st17" width="6.8" height="6.8"/>
			<rect x="102" y="-2" class="st18" width="5.3" height="5.3"/>
			<rect x="102.8" y="-15" class="st19" width="3.8" height="3.8"/>
			<rect x="103.5" y="-23.8" class="st14" width="2.3" height="2.3"/>
		</g>
		<g class="st2">
			<rect x="597" y="25.8" class="st3" width="11.2" height="11.2"/>
			<rect x="597.8" y="-2.7" class="st15" width="9.7" height="9.7"/>
			<rect x="598.5" y="-27.6" class="st16" width="8.2" height="8.2"/>
			<rect x="599.3" y="-48.7" class="st17" width="6.8" height="6.8"/>
			<rect x="600" y="-65.8" class="st18" width="5.3" height="5.3"/>
			<rect x="600.7" y="-78.9" class="st19" width="3.8" height="3.8"/>
			<rect x="601.5" y="-87.6" class="st14" width="2.3" height="2.3"/>
		</g>
		<g class="st20">
			<rect x="556.8" y="317.3" class="st3" width="12.4" height="12.4"/>
			<rect x="642.7" y="285.8" class="st3" width="9.7" height="9.7"/>
			<rect x="697.2" y="154.1" class="st3" width="5" height="5"/>
			<rect x="566" y="112.1" class="st3" width="7.3" height="7.3"/>
			<rect x="476.9" y="101.1" class="st3" width="5.9" height="5.9"/>
			<rect x="451.8" y="299.9" class="st3" width="5.5" height="5.5"/>
			<rect x="507.6" y="401.8" class="st3" width="4.6" height="4.6"/>
			<rect x="369.1" y="357.9" class="st3" width="5.9" height="5.9"/>
			<rect x="334.8" y="214" class="st3" width="5.5" height="5.5"/>
			<rect x="300.1" y="389" class="st3" width="7.3" height="7.3"/>
			<rect x="229.7" y="320" class="st3" width="10.1" height="10.1"/>
			<rect x="279.5" y="193.4" class="st3" width="5.5" height="5.5"/>
			<rect x="172.1" y="238.7" class="st3" width="7.3" height="7.3"/>
			<rect x="113.7" y="349.3" class="st3" width="13.3" height="13.3"/>
			<rect x="28.2" y="378.1" class="st3" width="3.7" height="3.7"/>
			<rect x="26.4" y="280.3" class="st3" width="8.7" height="8.7"/>
			<rect x="86.7" y="150" class="st3" width="4.6" height="4.6"/>
			<rect x="125.1" y="116.2" class="st3" width="3.2" height="3.2"/>
			<rect x="40.1" y="89.3" class="st3" width="5" height="5"/>
			<rect x="153.4" y="64.1" class="st3" width="9.1" height="9.1"/>
			<rect x="266.7" y="59.1" class="st3" width="6.9" height="6.9"/>
			<rect x="435.8" y="56.4" class="st3" width="6.4" height="6.4"/>
			<rect x="617.2" y="54.5" class="st3" width="7.8" height="7.8"/>
			<rect x="739.7" y="28.5" class="st3" width="4.1" height="4.1"/>
			<rect x="745.6" y="140.9" class="st3" width="8.2" height="8.2"/>
		</g>
		<g class="st2">
			<rect x="437.8" y="26.5" class="st21" width="9.1" height="9.1"/>
			<rect x="330.9" y="125.4" class="st21" width="5.9" height="5.9"/>
			<rect x="491.3" y="175.1" class="st21" width="3.2" height="3.2"/>
			<rect x="404.1" y="141.4" class="st21" width="7.5" height="7.5"/>
			<rect x="480.1" y="336.5" class="st21" width="7.5" height="7.5"/>
			<rect x="601.4" y="258.5" class="st21" width="6.9" height="6.9"/>
			<rect x="559.7" y="375" class="st21" width="2.7" height="2.7"/>
			<rect x="364" y="247.3" class="st21" width="4.3" height="4.3"/>
			<rect x="271.6" y="301.3" class="st21" width="2.7" height="2.7"/>
			<rect x="249.1" y="236" class="st21" width="2.7" height="2.7"/>
			<rect x="174.8" y="118.4" class="st21" width="4.3" height="4.3"/>
			<rect x="179.6" y="186.9" class="st21" width="1.6" height="1.6"/>
			<rect x="95.7" y="129.7" class="st21" width="3.7" height="3.7"/>
			<rect x="129.9" y="62.3" class="st21" width="2.7" height="2.7"/>
			<rect x="32.6" y="127.5" class="st21" width="4.3" height="4.3"/>
			<rect x="41.2" y="252.6" class="st21" width="5.3" height="5.3"/>
			<rect x="18.2" y="314.1" class="st21" width="5.9" height="5.9"/>
			<rect x="269.4" y="16.3" class="st21" width="6.4" height="6.4"/>
			<rect x="199.9" y="349.4" class="st21" width="5.3" height="5.3"/>
			<rect x="398.8" y="413.5" class="st21" width="5.3" height="5.3"/>
			<rect x="695.5" y="331.7" class="st21" width="4.3" height="4.3"/>
			<rect x="692.8" y="105.1" class="st21" width="4.8" height="4.8"/>
			<rect x="736.1" y="68.2" class="st21" width="9.1" height="9.1"/>
			<rect x="733.5" y="274" class="st21" width="6.9" height="6.9"/>
			<rect x="618.5" y="11.5" class="st21" width="6.9" height="6.9"/>
		</g>
	</g>
</g>
</svg>
