<svg xmlns="http://www.w3.org/2000/svg" xmlns:xlink="http://www.w3.org/1999/xlink" viewBox="0 0 295.96139 281.8678"><defs><style>.cls-1{isolation:isolate;}.cls-11,.cls-14,.cls-16,.cls-2{fill:#69e781;}.cls-19,.cls-2,.cls-31,.cls-33{mix-blend-mode:lighten;}.cls-3{fill:url(#Безымянный_градиент_8);}.cls-4{fill:#69c;}.cls-5{fill:#fff;}.cls-6{fill:#003;}.cls-10,.cls-11,.cls-12,.cls-13,.cls-34,.cls-7,.cls-8,.cls-9{opacity:0.5;}.cls-7{fill:url(#Безымянный_градиент_7);}.cls-8{fill:url(#Безымянный_градиент_7-2);}.cls-9{fill:url(#Безымянный_градиент_7-3);}.cls-10{fill:url(#Безымянный_градиент_7-4);}.cls-12{fill:url(#Безымянный_градиент_7-5);}.cls-13{fill:url(#Безымянный_градиент_7-6);}.cls-14{opacity:0.8;}.cls-15{opacity:0.3;}.cls-17{fill:url(#Безымянный_градиент_3);}.cls-18{fill:url(#Безымянный_градиент_3-2);}.cls-20{fill:url(#Безымянный_градиент_2);}.cls-21{fill:#036;}.cls-22{fill:url(#Безымянный_градиент_3-3);}.cls-23{fill:url(#Безымянный_градиент_3-4);}.cls-24{fill:url(#Безымянный_градиент_2-2);}.cls-25{fill:url(#Безымянный_градиент_3-5);}.cls-26{fill:#08192b;}.cls-27{fill:#143a61;}.cls-28{fill:url(#Безымянный_градиент_3-6);}.cls-29{fill:url(#Безымянный_градиент_2-3);}.cls-30{fill:url(#Безымянный_градиент_3-7);}.cls-31{fill:url(#Безымянный_градиент_2-4);}.cls-32{fill:url(#Безымянный_градиент_3-8);}.cls-33{fill:url(#Безымянный_градиент_2-5);}</style><linearGradient id="Безымянный_градиент_8" x1="-10.59789" y1="233.5308" x2="244.39117" y2="233.5308" gradientUnits="userSpaceOnUse"><stop offset="0" stop-color="#036"/><stop offset="0.16337" stop-color="#073a6d"/><stop offset="0.40238" stop-color="#1b4e81"/><stop offset="0.68779" stop-color="#3b6ea1"/><stop offset="1" stop-color="#69c"/></linearGradient><linearGradient id="Безымянный_градиент_7" x1="61.5645" y1="199.07445" x2="214.6156" y2="199.07445" gradientUnits="userSpaceOnUse"><stop offset="0" stop-color="#69e781"/><stop offset="0.12791" stop-color="#66e280"/><stop offset="0.27873" stop-color="#5ed47e"/><stop offset="0.44117" stop-color="#50bc7b"/><stop offset="0.61183" stop-color="#3d9b76"/><stop offset="0.78892" stop-color="#24706f"/><stop offset="0.96889" stop-color="#063d67"/><stop offset="1" stop-color="#036"/></linearGradient><linearGradient id="Безымянный_градиент_7-2" x1="138.08889" y1="171.4128" x2="214.6156" y2="171.4128" xlink:href="#Безымянный_градиент_7"/><linearGradient id="Безымянный_градиент_7-3" x1="61.5645" y1="171.41215" x2="138.09119" y2="171.41215" xlink:href="#Безымянный_градиент_7"/><linearGradient id="Безымянный_градиент_7-4" x1="61.5645" y1="187.93315" x2="214.6156" y2="187.93315" xlink:href="#Безымянный_градиент_7"/><linearGradient id="Безымянный_градиент_7-5" x1="138.09119" y1="215.59485" x2="214.6156" y2="215.59485" xlink:href="#Безымянный_градиент_7"/><linearGradient id="Безымянный_градиент_7-6" x1="61.5645" y1="215.5942" x2="138.09119" y2="215.5942" xlink:href="#Безымянный_градиент_7"/><radialGradient id="Безымянный_градиент_3" cx="-87.5502" cy="-172.83023" r="98.40885" gradientTransform="matrix(0.70492, 0.70934, -0.70934, 0.70492, 294.78561, 399.53533)" gradientUnits="userSpaceOnUse"><stop offset="0" stop-color="#69c"/><stop offset="1" stop-color="#036"/></radialGradient><radialGradient id="Безымянный_градиент_3-2" cx="912.29206" cy="334.78972" r="97.22022" gradientTransform="translate(-382.2604 -123.1801) scale(0.7781 1.0592)" xlink:href="#Безымянный_градиент_3"/><linearGradient id="Безымянный_градиент_2" x1="878.91389" y1="399.84026" x2="878.91389" y2="302.6604" gradientTransform="translate(-382.2604 -123.1801) scale(0.7781 1.0592)" gradientUnits="userSpaceOnUse"><stop offset="0" stop-color="#69e781"/><stop offset="0.12891" stop-color="#4eb97a"/><stop offset="0.26321" stop-color="#369074"/><stop offset="0.40143" stop-color="#236e6f"/><stop offset="0.54206" stop-color="#13546b"/><stop offset="0.68618" stop-color="#094268"/><stop offset="0.83584" stop-color="#023767"/><stop offset="1" stop-color="#036"/></linearGradient><radialGradient id="Безымянный_градиент_3-3" cx="257.30217" cy="104.10602" r="53.2713" gradientTransform="matrix(1, 0, 0, 1, 0, 0)" xlink:href="#Безымянный_градиент_3"/><radialGradient id="Безымянный_градиент_3-4" cx="331.38545" cy="167.14112" r="75.87901" gradientTransform="translate(86.54562 -100.47778) rotate(21.86472)" xlink:href="#Безымянный_градиент_3"/><linearGradient id="Безымянный_градиент_2-2" x1="297.1196" y1="218.25453" x2="309.61719" y2="129.32957" gradientTransform="translate(86.54562 -100.47778) rotate(21.86472)" xlink:href="#Безымянный_градиент_2"/><radialGradient id="Безымянный_градиент_3-5" cx="330.77798" cy="166.33391" r="36.03543" gradientTransform="matrix(1, 0, 0, 1, 0, 0)" xlink:href="#Безымянный_градиент_3"/><radialGradient id="Безымянный_градиент_3-6" cx="-52.7782" cy="-113.86701" r="35.56716" gradientTransform="translate(321.36094 350.21114) rotate(45.87059)" xlink:href="#Безымянный_градиент_3"/><linearGradient id="Безымянный_градиент_2-3" x1="-72.1098" y1="-88.4826" x2="-48.94332" y2="-113.49951" gradientTransform="translate(321.36094 350.21114) rotate(45.87059)" xlink:href="#Безымянный_градиент_2"/><radialGradient id="Безымянный_градиент_3-7" cx="309.0921" cy="-1700.76737" r="32.95054" gradientTransform="matrix(0.91116, 0.10872, -0.1791, 1.50104, -202.91993, 2798.70906)" xlink:href="#Безымянный_градиент_3"/><linearGradient id="Безымянный_градиент_2-4" x1="219.00208" y1="364.26972" x2="244.73669" y2="364.26972" gradientTransform="matrix(0.9112, 0.1087, -0.136, 1.1399, 204.8732, -144.2021)" xlink:href="#Безымянный_градиент_2"/><radialGradient id="Безымянный_градиент_3-8" cx="-2238.82363" cy="-2254.40655" r="32.95051" gradientTransform="matrix(0.44108, 0.80466, -1.32559, 0.72664, -1766.72729, 3670.4303)" xlink:href="#Безымянный_градиент_3"/><linearGradient id="Безымянный_градиент_2-5" x1="-2685.19212" y1="-155.64093" x2="-2700.6169" y2="-135.04065" gradientTransform="matrix(0.4411, 0.8047, -1.0067, 0.5518, 1247.8902, 2489.1329)" xlink:href="#Безымянный_градиент_2"/></defs><title>768 [преобразованный]</title><g class="cls-1"><g id="Слой_1" data-name="Слой 1"><path class="cls-2" d="M290.09079,263.0096a4.09917,4.09917,0,0,1-2.022-.6094l-12.9477-7.4756a.52871.52871,0,0,1,.5283-.916l12.9478,7.4756a1.88722,1.88722,0,0,0,3.1411-1.8135v-3.122a2.91209,2.91209,0,0,1,4.7256-2.7276l2.7046,1.5596a.52874.52874,0,0,1-.5284.916l-2.7046-1.5605a1.88638,1.88638,0,0,0-3.1406,1.8125v3.122a3.26029,3.26029,0,0,1-1.416,3.0039A2.53539,2.53539,0,0,1,290.09079,263.0096Z" transform="translate(-162.3594 -113.177)"/><path class="cls-2" d="M285.05469,265.9071a4.091,4.091,0,0,1-2.022-.6114l-12.94729-7.4736a.52874.52874,0,0,1,.5284-.916l12.9472,7.4746a1.88669,1.88669,0,0,0,3.14109-1.8125v-3.123a2.91324,2.91324,0,0,1,4.7261-2.7286l2.7041,1.5616a.52871.52871,0,0,1-.52829.916l-2.70411-1.5615a1.887,1.887,0,0,0-3.1411,1.8125v3.123a3.25956,3.25956,0,0,1-1.4165,3.0039A2.54483,2.54483,0,0,1,285.05469,265.9071Z" transform="translate(-162.3594 -113.177)"/><path class="cls-2" d="M280.019,268.8036a4.097,4.097,0,0,1-2.02191-.6094l-12.94779-7.4756a.52871.52871,0,0,1,.5283-.916l12.94779,7.4756a1.88689,1.88689,0,0,0,3.14061-1.8135v-3.1221a2.91227,2.91227,0,0,1,4.72609-2.7275l2.7041,1.5595a.52876.52876,0,0,1-.5283.9161l-2.7041-1.5606a1.8867,1.8867,0,0,0-3.1411,1.8125v3.1221a3.26058,3.26058,0,0,1-1.4161,3.0039A2.53455,2.53455,0,0,1,280.019,268.8036Z" transform="translate(-162.3594 -113.177)"/><path class="cls-2" d="M274.98289,271.701a4.09212,4.09212,0,0,1-2.022-.6113l-12.94769-7.4736a.52876.52876,0,0,1,.5283-.9161l12.94779,7.4746a1.88672,1.88672,0,0,0,3.1411-1.8125v-3.123a2.913,2.913,0,0,1,4.72561-2.7285l2.70449,1.5615a.52871.52871,0,0,1-.5283.916l-2.7046-1.5615a1.88671,1.88671,0,0,0-3.14059,1.8125v3.123a3.25985,3.25985,0,0,1-1.41651,3.004A2.54477,2.54477,0,0,1,274.98289,271.701Z" transform="translate(-162.3594 -113.177)"/><path class="cls-2" d="M269.9468,274.5975a4.09855,4.09855,0,0,1-2.022-.6094l-12.9473-7.4756a.52874.52874,0,0,1,.5284-.916l12.9472,7.4756a1.8872,1.8872,0,0,0,3.1411-1.8135v-3.122a2.91233,2.91233,0,0,1,4.72609-2.7276l2.7041,1.5596a.52872.52872,0,0,1-.5283.916l-2.70409-1.5605a1.88672,1.88672,0,0,0-3.1411,1.8125v3.122a3.26051,3.26051,0,0,1-1.416,3.0039A2.53665,2.53665,0,0,1,269.9468,274.5975Z" transform="translate(-162.3594 -113.177)"/><path class="cls-2" d="M264.9111,277.494a4.09851,4.09851,0,0,1-2.0219-.6094l-12.9478-7.4756a.52871.52871,0,0,1,.5283-.916l12.9478,7.4756a1.88672,1.88672,0,0,0,3.1406-1.8125V271.033a2.9132,2.9132,0,0,1,4.7261-2.7285l2.70409,1.5616a.52871.52871,0,0,1-.52829.916l-2.7041-1.5616a1.887,1.887,0,0,0-3.1412,1.8125v3.1231a3.25854,3.25854,0,0,1-1.416,3.0029A2.53325,2.53325,0,0,1,264.9111,277.494Z" transform="translate(-162.3594 -113.177)"/><path class="cls-2" d="M259.875,280.3914a4.1,4.1,0,0,1-2.022-.6093l-12.9477-7.4756a.52871.52871,0,0,1,.5283-.916l12.9477,7.4756a1.8873,1.8873,0,0,0,3.1412-1.8135v-3.1221a2.913,2.913,0,0,1,4.7255-2.7295l2.7046,1.5615a.52876.52876,0,0,1-.5283.9161l-2.7046-1.5616a1.88688,1.88688,0,0,0-3.1406,1.8135v3.1221a3.26053,3.26053,0,0,1-1.416,3.0039A2.53657,2.53657,0,0,1,259.875,280.3914Z" transform="translate(-162.3594 -113.177)"/><path class="cls-2" d="M254.8389,283.2879a4.089,4.089,0,0,1-2.022-.6093l-12.9473-7.4756a.52871.52871,0,0,1,.5283-.916l12.9473,7.4755a1.887,1.887,0,0,0,3.1411-1.8125v-3.123a2.9132,2.9132,0,0,1,4.7261-2.7285l2.7041,1.5615a.52871.52871,0,0,1-.5283.916l-2.7041-1.5615a1.887,1.887,0,0,0-3.1411,1.8125v3.123a3.26012,3.26012,0,0,1-1.416,3.003A2.53657,2.53657,0,0,1,254.8389,283.2879Z" transform="translate(-162.3594 -113.177)"/><path class="cls-2" d="M249.8032,286.1854a4.097,4.097,0,0,1-2.0219-.6094l-12.9478-7.4756a.52871.52871,0,0,1,.5283-.916l12.9478,7.4756a1.88688,1.88688,0,0,0,3.1406-1.8135v-3.122a2.91328,2.91328,0,0,1,4.7261-2.7295l2.7041,1.5615a.52871.52871,0,0,1-.5283.916l-2.7042-1.5615a1.88722,1.88722,0,0,0-3.1411,1.8135v3.122a3.26031,3.26031,0,0,1-1.416,3.0039A2.53456,2.53456,0,0,1,249.8032,286.1854Z" transform="translate(-162.3594 -113.177)"/><path class="cls-2" d="M244.7671,289.0819a4.08924,4.08924,0,0,1-2.022-.6094l-12.9477-7.4756a.52871.52871,0,0,1,.5283-.916l12.9477,7.4756a1.887,1.887,0,0,0,3.1412-1.8125v-3.1231a2.91291,2.91291,0,0,1,4.7255-2.7285l2.7046,1.5615a.52876.52876,0,0,1-.5283.9161l-2.7046-1.5616a1.88672,1.88672,0,0,0-3.1406,1.8125v3.1231a3.25963,3.25963,0,0,1-1.416,3.0029A2.53665,2.53665,0,0,1,244.7671,289.0819Z" transform="translate(-162.3594 -113.177)"/><path class="cls-2" d="M239.7314,291.9793a4.09362,4.09362,0,0,1-2.0224-.6113l-12.9473-7.4736a.52872.52872,0,0,1,.5283-.916l12.9473,7.4746a1.88675,1.88675,0,0,0,3.1411-1.8125v-3.1221a2.91333,2.91333,0,0,1,4.7261-2.7295l2.7041,1.5615a.52871.52871,0,0,1-.5283.916l-2.7041-1.5615a1.8872,1.8872,0,0,0-3.1411,1.8135v3.1221a3.26,3.26,0,0,1-1.4165,3.0039A2.542,2.542,0,0,1,239.7314,291.9793Z" transform="translate(-162.3594 -113.177)"/><path class="cls-2" d="M234.6953,294.8758a4.09914,4.09914,0,0,1-2.022-.6094l-12.9477-7.4755a.52876.52876,0,0,1,.5283-.9161l12.9478,7.4756a1.88672,1.88672,0,0,0,3.1406-1.8125v-3.123a2.91233,2.91233,0,0,1,4.7261-2.7276l2.7041,1.5606a.52874.52874,0,0,1-.5284.916l-2.7041-1.5615a1.88672,1.88672,0,0,0-3.1411,1.8125v3.123a3.25882,3.25882,0,0,1-1.416,3.003A2.53343,2.53343,0,0,1,234.6953,294.8758Z" transform="translate(-162.3594 -113.177)"/><path class="cls-2" d="M229.6597,297.7733a4.0947,4.0947,0,0,1-2.0225-.6113l-12.9477-7.4737a.52872.52872,0,0,1,.5283-.916l12.9477,7.4746a1.8867,1.8867,0,0,0,3.1411-1.8125v-3.1221a2.91311,2.91311,0,0,1,4.7256-2.7295l2.7046,1.5616a.52871.52871,0,0,1-.5283.916l-2.7046-1.5615a1.88687,1.88687,0,0,0-3.1406,1.8134v3.1221a3.25956,3.25956,0,0,1-1.4165,3.0039A2.54069,2.54069,0,0,1,229.6597,297.7733Z" transform="translate(-162.3594 -113.177)"/><path class="cls-2" d="M224.623,300.6698a4.09851,4.09851,0,0,1-2.0219-.6094l-12.9473-7.4756a.52871.52871,0,0,1,.5283-.916l12.9473,7.4756a1.88722,1.88722,0,0,0,3.1411-1.8135v-3.1221a2.91227,2.91227,0,0,1,4.7261-2.7275l2.7041,1.5596a.52872.52872,0,0,1-.5283.916l-2.7041-1.5606a1.8868,1.8868,0,0,0-3.1412,1.8125v3.1221a3.26031,3.26031,0,0,1-1.416,3.0039A2.53639,2.53639,0,0,1,224.623,300.6698Z" transform="translate(-162.3594 -113.177)"/><path class="cls-2" d="M219.5879,303.5672a4.095,4.095,0,0,1-2.0225-.6113l-12.9477-7.4736a.52876.52876,0,0,1,.5283-.9161l12.9478,7.4747a1.88642,1.88642,0,0,0,3.1406-1.8125v-3.1221a2.91328,2.91328,0,0,1,4.726-2.7295l2.7042,1.5615a.52874.52874,0,0,1-.5284.916l-2.7041-1.5615a1.88722,1.88722,0,0,0-3.1411,1.8135v3.1221a3.25868,3.25868,0,0,1-1.4165,3.0039A2.5411,2.5411,0,0,1,219.5879,303.5672Z" transform="translate(-162.3594 -113.177)"/><path class="cls-2" d="M214.5513,306.4637a4.09855,4.09855,0,0,1-2.022-.6094l-12.9478-7.4756a.52874.52874,0,0,1,.5284-.916l12.9477,7.4756a1.88722,1.88722,0,0,0,3.1411-1.8135v-3.122a2.91209,2.91209,0,0,1,4.7256-2.7276l2.7041,1.5596a.52872.52872,0,0,1-.5283.916l-2.7041-1.5605a1.88638,1.88638,0,0,0-3.1406,1.8125v3.122a3.26051,3.26051,0,0,1-1.416,3.0039A2.53566,2.53566,0,0,1,214.5513,306.4637Z" transform="translate(-162.3594 -113.177)"/><path class="cls-2" d="M209.5151,309.3612a4.09065,4.09065,0,0,1-2.0219-.6114l-12.9473-7.4736a.52872.52872,0,0,1,.5283-.916l12.9473,7.4746a1.88672,1.88672,0,0,0,3.1411-1.8125v-3.123a2.913,2.913,0,0,1,4.7256-2.7286l2.7046,1.5616a.52871.52871,0,0,1-.5283.916l-2.7046-1.5615a1.88676,1.88676,0,0,0-3.1407,1.8125v3.123a3.25956,3.25956,0,0,1-1.4165,3.0039A2.54459,2.54459,0,0,1,209.5151,309.3612Z" transform="translate(-162.3594 -113.177)"/><path class="cls-2" d="M204.479,312.2577a4.09914,4.09914,0,0,1-2.022-.6094l-12.9472-7.4756a.52871.52871,0,0,1,.5283-.916l12.9473,7.4756a1.88722,1.88722,0,0,0,3.1411-1.8135v-3.1221a2.91223,2.91223,0,0,1,4.726-2.7275l2.7041,1.5595a.52876.52876,0,0,1-.5283.9161l-2.7041-1.5606a1.88672,1.88672,0,0,0-3.1411,1.8125v3.1221a3.26053,3.26053,0,0,1-1.416,3.0039A2.53665,2.53665,0,0,1,204.479,312.2577Z" transform="translate(-162.3594 -113.177)"/><path class="cls-2" d="M199.4434,315.1541a4.09939,4.09939,0,0,1-2.022-.6093l-12.9478-7.4756a.52874.52874,0,0,1,.5284-.916l12.9477,7.4755a1.88672,1.88672,0,0,0,3.1406-1.8125v-3.123a2.9132,2.9132,0,0,1,4.7261-2.7285l2.7041,1.5615a.52871.52871,0,0,1-.5283.916l-2.7041-1.5615a1.887,1.887,0,0,0-3.1411,1.8125v3.123a3.259,3.259,0,0,1-1.416,3.003A2.53343,2.53343,0,0,1,199.4434,315.1541Z" transform="translate(-162.3594 -113.177)"/><path class="cls-2" d="M194.4072,318.0516a4.09851,4.09851,0,0,1-2.0219-.6094l-12.9478-7.4756a.52871.52871,0,0,1,.5283-.916l12.9478,7.4756a1.88722,1.88722,0,0,0,3.1411-1.8135v-3.122a2.91308,2.91308,0,0,1,4.7256-2.7295l2.7046,1.5615a.52874.52874,0,0,1-.5284.916l-2.7045-1.5615a1.88693,1.88693,0,0,0-3.1407,1.8135v3.122a3.26031,3.26031,0,0,1-1.416,3.0039A2.53639,2.53639,0,0,1,194.4072,318.0516Z" transform="translate(-162.3594 -113.177)"/><path class="cls-2" d="M310.72559,263.2459a2.53526,2.53526,0,0,1-1.2881-.3349,3.25992,3.25992,0,0,1-1.416-3.003v-3.123a1.8872,1.8872,0,0,0-3.1416-1.8125l-2.7031,1.5615a.529.529,0,1,1-.5293-.916l2.7041-1.5615a2.91339,2.91339,0,0,1,4.7265,2.7285v3.123a1.8872,1.8872,0,0,0,3.1416,1.8125L325.166,254.245a.529.529,0,1,1,.52929.916L312.748,262.6366A4.10258,4.10258,0,0,1,310.72559,263.2459Z" transform="translate(-162.3594 -113.177)"/><path class="cls-2" d="M315.76069,266.1434a2.54333,2.54333,0,0,1-1.2871-.335,3.26031,3.26031,0,0,1-1.416-3.0039v-3.122a1.88688,1.88688,0,0,0-3.14059-1.8135l-2.70411,1.5615a.529.529,0,1,1-.5293-.916l2.7041-1.5615a2.9136,2.9136,0,0,1,4.7266,2.7295v3.122a1.88688,1.88688,0,0,0,3.1406,1.8135l12.9482-7.4756a.52849.52849,0,0,1,.5274.916l-12.9473,7.4746A4.10077,4.10077,0,0,1,315.76069,266.1434Z" transform="translate(-162.3594 -113.177)"/><path class="cls-2" d="M320.79689,269.0399a2.54329,2.54329,0,0,1-1.2871-.334,3.2614,3.2614,0,0,1-1.416-3.0039v-3.1231a1.8868,1.8868,0,0,0-3.1407-1.8125L312.249,262.328a.529.529,0,0,1-.52931-.916l2.7041-1.5616a2.91344,2.91344,0,0,1,4.7266,2.7285v3.1231a1.88624,1.88624,0,0,0,3.13961,1.8125l12.94829-7.4756a.529.529,0,0,1,.5293.916l-12.9483,7.4756A4.09874,4.09874,0,0,1,320.79689,269.0399Z" transform="translate(-162.3594 -113.177)"/><path class="cls-2" d="M325.833,271.9373a2.539,2.539,0,0,1-1.28711-.3349,3.259,3.259,0,0,1-1.417-3.0039v-3.1221a1.8864,1.8864,0,0,0-3.1396-1.8135l-2.7061,1.5616a.52851.52851,0,0,1-.5273-.9161l2.705-1.5615a2.91213,2.91213,0,0,1,4.7246,2.7295v3.1221a1.887,1.887,0,0,0,3.1407,1.8135l12.9492-7.4756a.52847.52847,0,1,1,.5273.916l-12.9482,7.4746A4.09746,4.09746,0,0,1,325.833,271.9373Z" transform="translate(-162.3594 -113.177)"/><path class="cls-2" d="M330.86909,274.8338a2.525,2.525,0,0,1-1.288-.3349,3.26,3.26,0,0,1-1.41609-3.003v-3.123a1.88689,1.88689,0,0,0-3.14061-1.8135l-2.7041,1.5625a.529.529,0,0,1-.52929-.916l2.70409-1.5615a2.913,2.913,0,0,1,4.7266,2.7285v3.123a1.8872,1.8872,0,0,0,3.1416,1.8125l12.9463-7.4756a.529.529,0,0,1,.5293.9161l-12.9473,7.4756A4.0996,4.0996,0,0,1,330.86909,274.8338Z" transform="translate(-162.3594 -113.177)"/><path class="cls-2" d="M335.90429,277.7313a2.54333,2.54333,0,0,1-1.2871-.335,3.26031,3.26031,0,0,1-1.416-3.0039v-3.1221a1.88734,1.88734,0,0,0-3.1416-1.8134l-2.7032,1.5615a.529.529,0,0,1-.5293-.916l2.7042-1.5615a2.91346,2.91346,0,0,1,4.7265,2.7294v3.1221a1.88688,1.88688,0,0,0,3.1406,1.8135l12.9483-7.4756a.52847.52847,0,1,1,.52731.916l-12.94721,7.4746A4.10136,4.10136,0,0,1,335.90429,277.7313Z" transform="translate(-162.3594 -113.177)"/><path class="cls-2" d="M340.94139,280.6278a2.53537,2.53537,0,0,1-1.2881-.335,3.26031,3.26031,0,0,1-1.416-3.0039v-3.1221a1.88642,1.88642,0,0,0-3.1406-1.8125l-2.7051,1.5606a.52847.52847,0,1,1-.5273-.916l2.7041-1.5606a2.91244,2.91244,0,0,1,4.7255,2.7285v3.1221a1.88736,1.88736,0,0,0,3.1416,1.8135l12.9463-7.4756a.529.529,0,1,1,.5293.916l-12.9472,7.4756A4.102,4.102,0,0,1,340.94139,280.6278Z" transform="translate(-162.3594 -113.177)"/><path class="cls-2" d="M345.97659,283.5252a2.54373,2.54373,0,0,1-1.2871-.3349,3.26058,3.26058,0,0,1-1.4161-3.0039v-3.1221a1.88688,1.88688,0,0,0-3.1406-1.8135l-2.7041,1.5615a.529.529,0,0,1-.5293-.916l2.7041-1.5615a2.91357,2.91357,0,0,1,4.7266,2.7295v3.1221a1.88642,1.88642,0,0,0,3.1406,1.8125l12.9482-7.4746a.52849.52849,0,1,1,.5274.916L347.999,282.9149A4.10059,4.10059,0,0,1,345.97659,283.5252Z" transform="translate(-162.3594 -113.177)"/><path class="cls-2" d="M351.01369,286.4217a2.54356,2.54356,0,0,1-1.2881-.334,3.26208,3.26208,0,0,1-1.416-3.0049v-3.122a1.88693,1.88693,0,0,0-3.1407-1.8135l-2.705,1.5615a.52849.52849,0,0,1-.5274-.916l2.7041-1.5605a2.91276,2.91276,0,0,1,4.7256,2.7285v3.122a1.88645,1.88645,0,0,0,3.1397,1.8135l12.9482-7.4756a.529.529,0,0,1,.5293.9161l-12.9482,7.4755A4.09888,4.09888,0,0,1,351.01369,286.4217Z" transform="translate(-162.3594 -113.177)"/><path class="cls-2" d="M356.04879,289.3192a2.54437,2.54437,0,0,1-1.2871-.335,3.259,3.259,0,0,1-1.417-3.0039v-3.123a1.88623,1.88623,0,0,0-3.1396-1.8125l-2.70609,1.5615a.52847.52847,0,1,1-.52731-.916l2.7051-1.5616a2.91206,2.91206,0,0,1,4.7246,2.7286v3.123a1.88706,1.88706,0,0,0,3.14061,1.8135l12.94919-7.4756a.52849.52849,0,1,1,.5274.916l-12.9483,7.4746A4.09443,4.09443,0,0,1,356.04879,289.3192Z" transform="translate(-162.3594 -113.177)"/><path class="cls-2" d="M361.085,292.2157a2.53772,2.53772,0,0,1-1.28811-.335,3.26031,3.26031,0,0,1-1.416-3.0039v-3.1221a1.88647,1.88647,0,0,0-3.1407-1.8125l-2.705,1.5606a.52849.52849,0,0,1-.5274-.916l2.7041-1.5606a2.91249,2.91249,0,0,1,4.7256,2.7285v3.1221a1.88688,1.88688,0,0,0,3.1406,1.8135l12.9473-7.4756a.529.529,0,0,1,.5293.916l-12.9473,7.4756A4.09874,4.09874,0,0,1,361.085,292.2157Z" transform="translate(-162.3594 -113.177)"/><path class="cls-2" d="M366.12109,295.1121a2.5352,2.5352,0,0,1-1.28809-.3349,3.25983,3.25983,0,0,1-1.416-3.0029v-3.1231a1.8872,1.8872,0,0,0-3.14161-1.8125l-2.7031,1.5615a.529.529,0,1,1-.52929-.916l2.70409-1.5615a2.91339,2.91339,0,0,1,4.7265,2.7285v3.1231a1.88723,1.88723,0,0,0,3.1416,1.8125l12.9463-7.4756a.529.529,0,1,1,.5293.916l-12.9472,7.4756A4.10283,4.10283,0,0,1,366.12109,295.1121Z" transform="translate(-162.3594 -113.177)"/><path class="cls-2" d="M371.15719,298.0096a2.53434,2.53434,0,0,1-1.2881-.335,3.26051,3.26051,0,0,1-1.416-3.0039v-3.122a1.88736,1.88736,0,0,0-3.1416-1.8135l-2.7031,1.5615a.529.529,0,1,1-.5293-.916l2.7041-1.5615a2.91357,2.91357,0,0,1,4.7266,2.7295v3.122a1.88736,1.88736,0,0,0,3.1416,1.8135l12.9463-7.4756a.529.529,0,0,1,.52931.916l-12.94731,7.4756A4.10172,4.10172,0,0,1,371.15719,298.0096Z" transform="translate(-162.3594 -113.177)"/><path class="cls-2" d="M376.19339,300.9061a2.5351,2.5351,0,0,1-1.2881-.335,3.25963,3.25963,0,0,1-1.416-3.0029v-3.123a1.8872,1.8872,0,0,0-3.1416-1.8125l-2.7032,1.5615a.529.529,0,0,1-.5293-.916l2.7041-1.5616a2.91346,2.91346,0,0,1,4.7266,2.7286v3.123a1.8872,1.8872,0,0,0,3.1416,1.8125l12.9463-7.4756a.529.529,0,0,1,.5293.916l-12.9473,7.4756A4.10168,4.10168,0,0,1,376.19339,300.9061Z" transform="translate(-162.3594 -113.177)"/><path class="cls-2" d="M381.22949,303.8036a2.53534,2.53534,0,0,1-1.2881-.335,3.26053,3.26053,0,0,1-1.416-3.0039v-3.1221a1.88688,1.88688,0,0,0-3.1406-1.8135l-2.7041,1.5616a.529.529,0,0,1-.5293-.9161l2.7041-1.5615a2.91353,2.91353,0,0,1,4.72651,2.7295v3.1221a1.88735,1.88735,0,0,0,3.14159,1.8135l12.9463-7.4756a.529.529,0,1,1,.5293.916L383.252,303.1942A4.10208,4.10208,0,0,1,381.22949,303.8036Z" transform="translate(-162.3594 -113.177)"/><path class="cls-2" d="M386.26459,306.7a2.54345,2.54345,0,0,1-1.2871-.3339,3.26189,3.26189,0,0,1-1.416-3.004v-3.123a1.88672,1.88672,0,0,0-3.1406-1.8125l-2.7041,1.5615a.529.529,0,1,1-.5293-.916l2.7041-1.5615a2.91347,2.91347,0,0,1,4.7266,2.7285v3.123a1.88624,1.88624,0,0,0,3.1396,1.8125l12.9483-7.4755a.529.529,0,0,1,.5293.916l-12.9483,7.4756A4.0996,4.0996,0,0,1,386.26459,306.7Z" transform="translate(-162.3594 -113.177)"/><path class="cls-2" d="M391.30079,309.5975a2.53807,2.53807,0,0,1-1.2871-.335,3.25881,3.25881,0,0,1-1.417-3.0039v-3.122a1.88644,1.88644,0,0,0-3.13969-1.8135l-2.706,1.5615a.52849.52849,0,1,1-.52741-.916l2.7051-1.5615a2.91213,2.91213,0,0,1,4.7246,2.7295v3.122a1.88688,1.88688,0,0,0,3.1406,1.8135l12.9493-7.4756a.52847.52847,0,0,1,.5273.916l-12.9482,7.4746A4.098,4.098,0,0,1,391.30079,309.5975Z" transform="translate(-162.3594 -113.177)"/><path class="cls-2" d="M396.33689,312.494a2.528,2.528,0,0,1-1.2881-.335,3.25963,3.25963,0,0,1-1.416-3.0029V306.033a1.88687,1.88687,0,0,0-3.1406-1.8134l-2.7041,1.5625a.529.529,0,1,1-.5293-.916l2.7041-1.5616a2.913,2.913,0,0,1,4.7266,2.7285v3.1231a1.8867,1.8867,0,0,0,3.1406,1.8125l12.9472-7.4756a.529.529,0,1,1,.5293.916l-12.9472,7.4756A4.09879,4.09879,0,0,1,396.33689,312.494Z" transform="translate(-162.3594 -113.177)"/><path class="cls-2" d="M401.37209,315.3914a2.54393,2.54393,0,0,1-1.28709-.3349,3.26057,3.26057,0,0,1-1.41611-3.0039v-3.1221a1.88734,1.88734,0,0,0-3.1416-1.8135l-2.7031,1.5616a.529.529,0,0,1-.5293-.9161l2.70411-1.5615a2.91357,2.91357,0,0,1,4.72659,2.7295v3.1221a1.88692,1.88692,0,0,0,3.1406,1.8135l12.9483-7.4756a.52847.52847,0,0,1,.5273.916l-12.9473,7.4746A4.10052,4.10052,0,0,1,401.37209,315.3914Z" transform="translate(-162.3594 -113.177)"/><path class="cls-2" d="M406.40919,318.2879a2.53526,2.53526,0,0,1-1.2881-.3349,3.25994,3.25994,0,0,1-1.416-3.003v-3.123a1.88638,1.88638,0,0,0-3.1406-1.8125l-2.7041,1.5615a.529.529,0,1,1-.5293-.916l2.7041-1.5615a2.91293,2.91293,0,0,1,4.7265,2.7285v3.123a1.8872,1.8872,0,0,0,3.1416,1.8125l12.9463-7.4755a.529.529,0,1,1,.5293.916l-12.9473,7.4756A4.10249,4.10249,0,0,1,406.40919,318.2879Z" transform="translate(-162.3594 -113.177)"/><polygon class="cls-3" points="237.584 199.062 237.584 210.559 138.091 268.001 38.596 210.558 38.596 199.06 237.584 199.062"/><polygon class="cls-4" points="138.091 256.504 38.596 199.06 138.089 141.618 237.584 199.062 138.091 256.504"/><polygon class="cls-5" points="138.091 255.161 39.759 198.389 38.596 199.06 138.091 256.504 237.584 199.062 236.421 198.39 138.091 255.161"/><polygon class="cls-6" points="138.091 243.255 61.566 199.073 138.089 154.892 214.614 199.074 138.091 243.255"/><polygon class="cls-7" points="138.091 243.256 61.564 199.074 138.089 154.892 214.616 199.075 138.091 243.256"/><polygon class="cls-8" points="138.089 143.751 214.616 187.934 214.616 199.074 138.089 154.892 138.089 143.751"/><polygon class="cls-9" points="138.091 154.892 61.564 199.073 61.564 187.932 138.089 143.751 138.091 154.892"/><polygon class="cls-10" points="138.091 232.115 61.564 187.932 138.089 143.751 214.616 187.934 138.091 232.115"/><polygon class="cls-11" points="138.09 205.587 107.512 187.933 138.09 170.279 168.668 187.933 138.09 205.587"/><polygon class="cls-11" points="138.09 171.903 167.261 188.746 168.668 187.933 138.09 170.279 107.512 187.933 108.919 188.745 138.09 171.903"/><polygon class="cls-12" points="138.091 232.115 138.091 243.256 214.616 199.074 214.616 187.934 138.091 232.115"/><polygon class="cls-13" points="61.564 187.932 61.564 199.073 138.091 243.256 138.091 232.115 61.564 187.932"/><polygon class="cls-14" points="138.091 230.899 62.618 187.324 61.564 187.933 138.091 232.115 214.616 187.934 213.562 187.326 138.091 230.899"/><path class="cls-2" d="M325.42969,395.0448a.52553.52553,0,0,1-.26269-.0703l-12.94731-7.4747a9.15593,9.15593,0,0,1-4.1982-7.2705v-3.123a8.11929,8.11929,0,0,0-3.669-6.3545l-2.705-1.5615a.529.529,0,1,1,.5293-.916l2.7041,1.5615a9.15166,9.15166,0,0,1,4.1972,7.2705v3.123a8.12062,8.12062,0,0,0,3.66991,6.3545l12.94629,7.4746a.52839.52839,0,0,1-.2646.9864Z" transform="translate(-162.3594 -113.177)"/><path class="cls-2" d="M330.46579,392.1434a.5322.5322,0,0,1-.2637-.0703l-12.9472-7.4756a9.15191,9.15191,0,0,1-4.1973-7.2705v-3.1231a8.12061,8.12061,0,0,0-3.6699-6.3544l-2.7041-1.5616a.529.529,0,1,1,.5293-.916l2.70411,1.5615a9.15492,9.15492,0,0,1,4.19729,7.2705v3.1231a8.11921,8.11921,0,0,0,3.6689,6.3545l12.9482,7.4756a.52847.52847,0,0,1-.2656.9863Z" transform="translate(-162.3594 -113.177)"/><path class="cls-2" d="M335.502,389.2411a.531.531,0,0,1-.26371-.0704L322.29,381.6952a9.15638,9.15638,0,0,1-4.19621-7.2706v-3.122a8.12735,8.12735,0,0,0-3.67-6.3565l-2.7031-1.5595a.52851.52851,0,0,1,.52731-.9161l2.70409,1.5606a9.15782,9.15782,0,0,1,4.1983,7.2715v3.122a8.11819,8.11819,0,0,0,3.6689,6.3545l12.9483,7.4756a.52856.52856,0,0,1-.26559.9864Z" transform="translate(-162.3594 -113.177)"/><path class="cls-2" d="M340.53809,386.3397a.5319.5319,0,0,1-.2637-.0703l-12.9482-7.4756a9.15475,9.15475,0,0,1-4.1973-7.2705v-3.1231a8.11836,8.11836,0,0,0-3.66889-6.3545l-2.70411-1.5615a.52847.52847,0,1,1,.5273-.916l2.7051,1.5615a9.1548,9.1548,0,0,1,4.1972,7.2705v3.1231a8.12081,8.12081,0,0,0,3.67,6.3545l12.9482,7.4756a.52847.52847,0,0,1-.2656.9863Z" transform="translate(-162.3594 -113.177)"/><path class="cls-2" d="M345.57319,383.4373a.53077.53077,0,0,1-.2636-.0703l-12.9473-7.4756a9.15459,9.15459,0,0,1-4.19729-7.2705v-3.123a8.124,8.124,0,0,0-3.66991-6.3555l-2.70409-1.5605a.529.529,0,0,1,.52929-.916l2.7041,1.5615a9.1576,9.1576,0,0,1,4.1973,7.2705v3.123a8.12227,8.12227,0,0,0,3.6689,6.3545l12.9483,7.4756a.52849.52849,0,0,1-.2657.9863Z" transform="translate(-162.3594 -113.177)"/><path class="cls-2" d="M350.60939,380.535a.52557.52557,0,0,1-.2627-.0703l-12.9473-7.4746a9.15637,9.15637,0,0,1-4.1982-7.2715v-3.1221a8.11932,8.11932,0,0,0-3.669-6.3545l-2.7051-1.5615a.529.529,0,0,1,.5293-.916l2.7041,1.5615a9.15165,9.15165,0,0,1,4.1973,7.2705v3.1221a8.12276,8.12276,0,0,0,3.6699,6.3555l12.94631,7.4746a.52834.52834,0,0,1-.26461.9863Z" transform="translate(-162.3594 -113.177)"/><path class="cls-2" d="M355.64549,377.6336a.53086.53086,0,0,1-.2637-.0703l-12.9472-7.4756a9.15176,9.15176,0,0,1-4.1973-7.2705v-3.123a8.11948,8.11948,0,0,0-3.6689-6.3545l-2.7051-1.5615a.529.529,0,1,1,.5293-.9161l2.7041,1.5616a9.15166,9.15166,0,0,1,4.1972,7.2705v3.123a8.11932,8.11932,0,0,0,3.669,6.3545l12.9482,7.4756a.52846.52846,0,0,1-.2656.9863Z" transform="translate(-162.3594 -113.177)"/><path class="cls-2" d="M360.68159,374.7313a.53178.53178,0,0,1-.26359-.0703l-12.94731-7.4756a9.15191,9.15191,0,0,1-4.1973-7.2705v-3.1221a8.127,8.127,0,0,0-3.6699-6.3564l-2.7041-1.5606a.529.529,0,0,1,.5293-.916l2.7041,1.5615a9.15953,9.15953,0,0,1,4.1973,7.2715v3.1221a8.11946,8.11946,0,0,0,3.66891,6.3545l12.94829,7.4756a.5285.5285,0,0,1-.2657.9863Z" transform="translate(-162.3594 -113.177)"/><path class="cls-2" d="M365.71779,371.8289a.52454.52454,0,0,1-.2627-.0703l-12.9483-7.4746a9.15778,9.15778,0,0,1-4.1972-7.2715v-3.122a8.12047,8.12047,0,0,0-3.67-6.3545l-2.7041-1.5615a.529.529,0,0,1,.5293-.9161l2.7041,1.5616a9.15434,9.15434,0,0,1,4.1973,7.2705v3.122a8.12475,8.12475,0,0,0,3.669,6.3565l12.9472,7.4736a.52832.52832,0,0,1-.2646.9863Z" transform="translate(-162.3594 -113.177)"/><path class="cls-2" d="M370.75389,368.9276a.53193.53193,0,0,1-.2637-.0703L357.542,361.3817a9.15489,9.15489,0,0,1-4.19731-7.2705v-3.1231a8.11835,8.11835,0,0,0-3.6689-6.3545l-2.7041-1.5615a.52847.52847,0,1,1,.52731-.916l2.70509,1.5615a9.15475,9.15475,0,0,1,4.1973,7.2705v3.1231a8.12094,8.12094,0,0,0,3.6699,6.3545l12.9482,7.4755a.52853.52853,0,0,1-.2656.9864Z" transform="translate(-162.3594 -113.177)"/><path class="cls-2" d="M375.78909,366.0252a.53086.53086,0,0,1-.2637-.0703l-12.9473-7.4756a9.1545,9.1545,0,0,1-4.1972-7.2705v-3.122a8.12244,8.12244,0,0,0-3.67-6.3555l-2.7031-1.5606a.52849.52849,0,0,1,.5274-.916l2.7041,1.5606a9.15622,9.15622,0,0,1,4.1982,7.2715v3.122a8.12081,8.12081,0,0,0,3.6699,6.3545l12.9473,7.4756a.52848.52848,0,0,1-.2656.9863Z" transform="translate(-162.3594 -113.177)"/><path class="cls-2" d="M380.82519,363.1229a.52557.52557,0,0,1-.2627-.0703l-12.9473-7.4746a9.15636,9.15636,0,0,1-4.19819-7.2715v-3.1221a8.11934,8.11934,0,0,0-3.669-6.3545l-2.705-1.5615a.529.529,0,1,1,.52929-.916l2.7041,1.5615a9.15181,9.15181,0,0,1,4.1972,7.2705v3.1221a8.12259,8.12259,0,0,0,3.67,6.3555l12.9462,7.4746a.52834.52834,0,0,1-.2646.9863Z" transform="translate(-162.3594 -113.177)"/><path class="cls-2" d="M385.86129,360.2215a.53049.53049,0,0,1-.2636-.0703l-12.9473-7.4756a9.15176,9.15176,0,0,1-4.1973-7.2705v-3.123a8.11948,8.11948,0,0,0-3.6689-6.3545l-2.7051-1.5615a.529.529,0,1,1,.5293-.9161l2.7041,1.5616a9.15173,9.15173,0,0,1,4.1973,7.2705v3.123a8.11948,8.11948,0,0,0,3.6689,6.3545l12.94831,7.4756a.52851.52851,0,0,1-.26571.9863Z" transform="translate(-162.3594 -113.177)"/><path class="cls-2" d="M390.89749,357.3192a.5319.5319,0,0,1-.2637-.0703l-12.9473-7.4756a9.15183,9.15183,0,0,1-4.1972-7.2705v-3.1221a8.12562,8.12562,0,0,0-3.67-6.3564l-2.7031-1.5596a.52849.52849,0,1,1,.5274-.916l2.7041,1.5605a9.15663,9.15663,0,0,1,4.1982,7.2715v3.1221a8.11948,8.11948,0,0,0,3.6689,6.3545l12.9483,7.4755a.52856.52856,0,0,1-.2656.9864Z" transform="translate(-162.3594 -113.177)"/><path class="cls-2" d="M395.93359,354.4168a.52454.52454,0,0,1-.2627-.0703l-12.9473-7.4746a9.15622,9.15622,0,0,1-4.1982-7.2715v-3.122a8.12063,8.12063,0,0,0-3.6699-6.3545l-2.7041-1.5616a.529.529,0,1,1,.5293-.916l2.7041,1.5615a9.15484,9.15484,0,0,1,4.19721,7.2706v3.122a8.12577,8.12577,0,0,0,3.67,6.3565l12.94619,7.4736a.52832.52832,0,0,1-.2646.9863Z" transform="translate(-162.3594 -113.177)"/><path class="cls-2" d="M400.96969,351.5155a.53157.53157,0,0,1-.2636-.0703l-12.9483-7.4756a9.15647,9.15647,0,0,1-4.1963-7.2705V333.576a8.12092,8.12092,0,0,0-3.6699-6.3545l-2.7041-1.5615a.529.529,0,1,1,.5293-.916l2.7041,1.5615a9.15475,9.15475,0,0,1,4.1973,7.2705v3.1231a8.11835,8.11835,0,0,0,3.6689,6.3545l12.9483,7.4755a.52856.52856,0,0,1-.2657.9864Z" transform="translate(-162.3594 -113.177)"/><path class="cls-2" d="M406.00589,348.6131a.53088.53088,0,0,1-.2637-.0703l-12.9483-7.4756a9.15465,9.15465,0,0,1-4.1972-7.2705v-3.1221a8.12457,8.12457,0,0,0-3.669-6.3564l-2.7041-1.5596a.52849.52849,0,0,1,.52741-.916l2.70509,1.5606a9.15775,9.15775,0,0,1,4.1972,7.2714v3.1221a8.12079,8.12079,0,0,0,3.6699,6.3545l12.9483,7.4756a.52849.52849,0,0,1-.2656.9863Z" transform="translate(-162.3594 -113.177)"/><path class="cls-2" d="M411.041,345.7108a.52558.52558,0,0,1-.26271-.0703l-12.9472-7.4746a9.158,9.158,0,0,1-4.1983-7.2715v-3.1221a8.11948,8.11948,0,0,0-3.6689-6.3545l-2.7051-1.5615a.529.529,0,1,1,.5293-.916l2.7041,1.5615a9.15191,9.15191,0,0,1,4.1973,7.2705v3.1221a8.12707,8.12707,0,0,0,3.6699,6.3564l12.9463,7.4737a.52837.52837,0,0,1-.26469.9863Z" transform="translate(-162.3594 -113.177)"/><path class="cls-2" d="M416.07709,342.8094a.53077.53077,0,0,1-.2636-.0703l-12.9473-7.4756a9.15176,9.15176,0,0,1-4.1973-7.2705V324.87A8.11907,8.11907,0,0,0,395,318.5155l-2.70511-1.5616a.529.529,0,0,1,.5293-.916l2.7041,1.5616a9.15161,9.15161,0,0,1,4.1973,7.2705v3.123a8.11948,8.11948,0,0,0,3.6689,6.3545l12.9483,7.4756a.5285.5285,0,0,1-.2657.9863Z" transform="translate(-162.3594 -113.177)"/><path class="cls-2" d="M421.11329,339.9071a.5319.5319,0,0,1-.2637-.0703l-12.9473-7.4756a9.15181,9.15181,0,0,1-4.1972-7.2705v-3.1221a8.12612,8.12612,0,0,0-3.6699-6.3565l-2.70319-1.5595a.52849.52849,0,1,1,.52739-.916l2.7041,1.5605a9.15634,9.15634,0,0,1,4.1982,7.2715v3.1221a8.11932,8.11932,0,0,0,3.669,6.3545l12.9482,7.4755a.52853.52853,0,0,1-.2656.9864Z" transform="translate(-162.3594 -113.177)"/><path class="cls-2" d="M275.11619,395.0448a.52871.52871,0,0,1-.2646-.9864l12.9477-7.4746a8.1215,8.1215,0,0,0,3.6695-6.3545v-3.123a9.15463,9.15463,0,0,1,4.19721-7.2705l2.70459-1.5615a.52871.52871,0,0,1,.5283.916l-2.7046,1.5615a8.11953,8.11953,0,0,0-3.6689,6.3545v3.123a9.15386,9.15386,0,0,1-4.1978,7.2696l-12.9477,7.4756A.52648.52648,0,0,1,275.11619,395.0448Z" transform="translate(-162.3594 -113.177)"/><path class="cls-2" d="M270.0806,392.1434a.5285.5285,0,0,1-.2647-.9863l12.94729-7.4756a8.11887,8.11887,0,0,0,3.6694-6.3545v-3.1231a9.15412,9.15412,0,0,1,4.1978-7.2705l2.7041-1.5615a.52871.52871,0,0,1,.5283.916l-2.7041,1.5616a8.11853,8.11853,0,0,0-3.6694,6.3544v3.1231a9.154,9.154,0,0,1-4.1978,7.2705l-12.94729,7.4756A.52639.52639,0,0,1,270.0806,392.1434Z" transform="translate(-162.3594 -113.177)"/><path class="cls-2" d="M265.0444,389.2411a.52853.52853,0,0,1-.2646-.9864l12.94769-7.4756a8.11937,8.11937,0,0,0,3.669-6.3545v-3.122a9.15372,9.15372,0,0,1,4.1977-7.2705l2.7041-1.5616a.52878.52878,0,0,1,.5284.9161l-2.7041,1.5605a8.12191,8.12191,0,0,0-3.6695,6.3555v3.122a9.15483,9.15483,0,0,1-4.1972,7.2706l-12.94779,7.4755A.52557.52557,0,0,1,265.0444,389.2411Z" transform="translate(-162.3594 -113.177)"/><path class="cls-2" d="M260.0083,386.3397a.52847.52847,0,0,1-.2646-.9863l12.9477-7.4756a8.11888,8.11888,0,0,0,3.66939-6.3545v-3.1231a9.1549,9.1549,0,0,1,4.1973-7.2705l2.7046-1.5615a.52872.52872,0,0,1,.52831.916l-2.70461,1.5615a8.11969,8.11969,0,0,0-3.6689,6.3545v3.1231a9.154,9.154,0,0,1-4.1978,7.2705L260.272,386.2694A.52675.52675,0,0,1,260.0083,386.3397Z" transform="translate(-162.3594 -113.177)"/><path class="cls-2" d="M254.9727,383.4373a.52845.52845,0,0,1-.2647-.9863l12.9473-7.4756a8.11871,8.11871,0,0,0,3.6694-6.3545v-3.123a9.15352,9.15352,0,0,1,4.19779-7.2695l2.7041-1.5625a.52871.52871,0,0,1,.5283.916l-2.7041,1.5615a8.12164,8.12164,0,0,0-3.66949,6.3545v3.123a9.15372,9.15372,0,0,1-4.1977,7.2705l-12.9473,7.4756A.52536.52536,0,0,1,254.9727,383.4373Z" transform="translate(-162.3594 -113.177)"/><path class="cls-2" d="M249.9365,380.535a.52865.52865,0,0,1-.2646-.9863l12.9477-7.4746a8.12289,8.12289,0,0,0,3.669-6.3555v-3.1221a9.15387,9.15387,0,0,1,4.1977-7.2705l2.70409-1.5615a.52874.52874,0,0,1,.5284.916l-2.70419,1.5615a8.11887,8.11887,0,0,0-3.6694,6.3545v3.1221a9.15449,9.15449,0,0,1-4.1973,7.2705l-12.9477,7.4756A.52648.52648,0,0,1,249.9365,380.535Z" transform="translate(-162.3594 -113.177)"/><path class="cls-2" d="M244.9004,377.6336a.52848.52848,0,0,1-.2647-.9863l12.9478-7.4756a8.11871,8.11871,0,0,0,3.6694-6.3545v-3.123a9.1546,9.1546,0,0,1,4.1973-7.2705l2.7046-1.5616a.52876.52876,0,0,1,.5283.9161l-2.7046,1.5615a8.11953,8.11953,0,0,0-3.6689,6.3545v3.123a9.15382,9.15382,0,0,1-4.1978,7.2705l-12.9477,7.4756A.52572.52572,0,0,1,244.9004,377.6336Z" transform="translate(-162.3594 -113.177)"/><path class="cls-2" d="M239.8647,374.7313a.52847.52847,0,0,1-.2646-.9863l12.9473-7.4756a8.11887,8.11887,0,0,0,3.6694-6.3545v-3.1221a9.15371,9.15371,0,0,1,4.1978-7.2705l2.7041-1.5625a.52871.52871,0,0,1,.5283.916l-2.7041,1.5615a8.12207,8.12207,0,0,0-3.6695,6.3555v3.1221a9.15387,9.15387,0,0,1-4.1977,7.2705l-12.9473,7.4756A.52648.52648,0,0,1,239.8647,374.7313Z" transform="translate(-162.3594 -113.177)"/><path class="cls-2" d="M234.8286,371.8289a.52864.52864,0,0,1-.2646-.9863l12.9477-7.4746a8.12273,8.12273,0,0,0,3.669-6.3555v-3.122a9.15372,9.15372,0,0,1,4.1977-7.2705l2.7041-1.5616a.52876.52876,0,0,1,.5283.9161l-2.7041,1.5615a8.11871,8.11871,0,0,0-3.6694,6.3545v3.122a9.15434,9.15434,0,0,1-4.1973,7.2705l-12.9477,7.4756A.52546.52546,0,0,1,234.8286,371.8289Z" transform="translate(-162.3594 -113.177)"/><path class="cls-2" d="M229.7925,368.9276a.52856.52856,0,0,1-.2647-.9864l12.9478-7.4755a8.11887,8.11887,0,0,0,3.6694-6.3545v-3.1231a9.15475,9.15475,0,0,1,4.1973-7.2705l2.7046-1.5615a.52871.52871,0,0,1,.5283.916l-2.7046,1.5615a8.11969,8.11969,0,0,0-3.6689,6.3545v3.1231a9.15412,9.15412,0,0,1-4.1978,7.2705l-12.9477,7.4756A.527.527,0,0,1,229.7925,368.9276Z" transform="translate(-162.3594 -113.177)"/><path class="cls-2" d="M224.7568,366.0252a.52845.52845,0,0,1-.2646-.9863l12.9473-7.4756a8.11871,8.11871,0,0,0,3.6694-6.3545v-3.122a9.154,9.154,0,0,1,4.1977-7.2706l2.7041-1.5615a.52874.52874,0,0,1,.5284.916l-2.7041,1.5606a8.12191,8.12191,0,0,0-3.6695,6.3555v3.122a9.15372,9.15372,0,0,1-4.1977,7.2705l-12.9473,7.4756A.52546.52546,0,0,1,224.7568,366.0252Z" transform="translate(-162.3594 -113.177)"/><path class="cls-2" d="M219.7207,363.1229a.52865.52865,0,0,1-.2646-.9863l12.9477-7.4746a8.12289,8.12289,0,0,0,3.669-6.3555v-3.1221a9.15387,9.15387,0,0,1,4.1977-7.2705l2.7041-1.5615a.52871.52871,0,0,1,.5283.916l-2.7041,1.5615a8.11887,8.11887,0,0,0-3.6694,6.3545v3.1221a9.15475,9.15475,0,0,1-4.1973,7.2705l-12.9477,7.4756A.52675.52675,0,0,1,219.7207,363.1229Z" transform="translate(-162.3594 -113.177)"/><path class="cls-2" d="M214.6846,360.2215a.5285.5285,0,0,1-.2647-.9863l12.9478-7.4756a8.11871,8.11871,0,0,0,3.6694-6.3545v-3.123a9.1546,9.1546,0,0,1,4.1973-7.2705l2.7041-1.5616a.52876.52876,0,0,1,.5283.9161l-2.7041,1.5615a8.11926,8.11926,0,0,0-3.6689,6.3545v3.123a9.154,9.154,0,0,1-4.1978,7.2705l-12.9478,7.4756A.52536.52536,0,0,1,214.6846,360.2215Z" transform="translate(-162.3594 -113.177)"/><path class="cls-2" d="M209.6489,357.3192a.52853.52853,0,0,1-.2646-.9864l12.9472-7.4755a8.1187,8.1187,0,0,0,3.6695-6.3545v-3.1221a9.15387,9.15387,0,0,1,4.1977-7.2705l2.7041-1.5615a.52874.52874,0,0,1,.5284.916l-2.7041,1.5605a8.12207,8.12207,0,0,0-3.6695,6.3555v3.1221a9.154,9.154,0,0,1-4.1977,7.2705l-12.9473,7.4756A.52648.52648,0,0,1,209.6489,357.3192Z" transform="translate(-162.3594 -113.177)"/><path class="cls-2" d="M204.6128,354.4168a.52867.52867,0,0,1-.2647-.9863l12.9473-7.4746a8.12208,8.12208,0,0,0,3.6694-6.3555v-3.122a9.15415,9.15415,0,0,1,4.1978-7.2706l2.7041-1.5615a.52871.52871,0,0,1,.5283.916l-2.7041,1.5616a8.11871,8.11871,0,0,0-3.6694,6.3545v3.122a9.15382,9.15382,0,0,1-4.1978,7.2705l-12.9472,7.4756A.52572.52572,0,0,1,204.6128,354.4168Z" transform="translate(-162.3594 -113.177)"/><path class="cls-2" d="M199.5767,351.5155a.52856.52856,0,0,1-.2647-.9864l12.9478-7.4755a8.11969,8.11969,0,0,0,3.6689-6.3545V333.576a9.154,9.154,0,0,1,4.1978-7.2705l2.7041-1.5615a.52871.52871,0,0,1,.5283.916l-2.7041,1.5615a8.1186,8.1186,0,0,0-3.6694,6.3545v3.1231a9.1549,9.1549,0,0,1-4.1973,7.2705l-12.9478,7.4756A.52639.52639,0,0,1,199.5767,351.5155Z" transform="translate(-162.3594 -113.177)"/><path class="cls-2" d="M194.5405,348.6131a.52845.52845,0,0,1-.2646-.9863l12.9477-7.4756a8.11855,8.11855,0,0,0,3.6695-6.3545v-3.1221a9.1548,9.1548,0,0,1,4.1972-7.2705l2.7046-1.5615a.52872.52872,0,0,1,.5283.916l-2.7045,1.5606a8.12255,8.12255,0,0,0-3.669,6.3554v3.1221a9.15387,9.15387,0,0,1-4.1977,7.2705l-12.9478,7.4756A.52546.52546,0,0,1,194.5405,348.6131Z" transform="translate(-162.3594 -113.177)"/><path class="cls-2" d="M189.5049,345.7108a.52869.52869,0,0,1-.2647-.9863l12.9473-7.4747a8.1219,8.1219,0,0,0,3.6694-6.3554v-3.1221a9.154,9.154,0,0,1,4.1978-7.2705l2.7041-1.5615a.52871.52871,0,0,1,.5283.916l-2.7041,1.5615a8.11887,8.11887,0,0,0-3.6694,6.3545v3.1221a9.15412,9.15412,0,0,1-4.1978,7.2705l-12.9472,7.4756A.527.527,0,0,1,189.5049,345.7108Z" transform="translate(-162.3594 -113.177)"/><path class="cls-2" d="M184.4688,342.8094a.52847.52847,0,0,1-.2647-.9863l12.9478-7.4756a8.11969,8.11969,0,0,0,3.6689-6.3545V324.87a9.15382,9.15382,0,0,1,4.1978-7.2705l2.7041-1.5616a.52871.52871,0,0,1,.5283.916l-2.7041,1.5616a8.11855,8.11855,0,0,0-3.6695,6.3545v3.123a9.15465,9.15465,0,0,1-4.1972,7.2705l-12.9478,7.4756A.52536.52536,0,0,1,184.4688,342.8094Z" transform="translate(-162.3594 -113.177)"/><path class="cls-2" d="M179.4326,339.9071a.52853.52853,0,0,1-.2646-.9864l12.9477-7.4755a8.1187,8.1187,0,0,0,3.6695-6.3545v-3.1221a9.15465,9.15465,0,0,1,4.1972-7.2705l2.7046-1.5615a.52872.52872,0,0,1,.5283.916l-2.7046,1.5605a8.123,8.123,0,0,0-3.6689,6.3555v3.1221a9.15412,9.15412,0,0,1-4.1978,7.2705l-12.9477,7.4756A.52648.52648,0,0,1,179.4326,339.9071Z" transform="translate(-162.3594 -113.177)"/><g class="cls-15"><path class="cls-16" d="M393.99929,153.5491c.8932,5.0501,4.6393,17.7442,20.0955,26.525,22.00121,10.16,37.2416,23.5161,42.3475,38.4283a34.61748,34.61748,0,0,0,1.3276,3.212c.54811-.9035.54811-.9035.5509-3.09V193.5871c-.00979-14.7007-.8345-17.9416-1.8785-22.0448-5.1059-14.9123-20.34629-28.2684-42.3475-38.4284-17.5523-5.6656-21.8013,10.7905-20.0955,20.4352Z" transform="translate(-162.3594 -113.177)"/><path class="cls-16" d="M232.6612,123.5084c23.2936-6.7574,50.85029-10.5616,80.26149-10.3206q5.8215.0477,11.5251.3024c25.8257,2.3588,35.0109,29.6331,19.4405,41.5657-7.1467,5.477-15.7618,5.4192-19.4405,5.3945q-5.70105-.2535-11.5251-.3024c-29.4112-.2411-56.96789,3.5631-80.26149,10.3206-23.5197,5.7294-24.9092-18.1722-16.684-32.7928,2.7663-4.9172,7.9064-11.3666,16.684-14.1674Z" transform="translate(-162.3594 -113.177)"/><path class="cls-16" d="M162.3594,229.6341c.6414-7.4435,1.148-13.3227,8.7261-23.5832,15.9756-23.5738,12.7496-50.9719,3.9247-49.7065-1.4225.204-2.9014,1.7373-3.9247,2.7463-5.3634,6.9893-8.4115,14.5048-8.7031,22.3466q-.0231.6195-.023,1.2366v46.9602Z" transform="translate(-162.3594 -113.177)"/></g><rect class="cls-16" x="357.74978" y="234.73362" width="5.48678" height="46.83906" transform="translate(-232.87789 40.92173) rotate(-22.03429)"/><circle class="cls-17" cx="257.6047" cy="215.1904" r="17.04858" transform="translate(-238.64054 67.55562) rotate(-33.98154)"/><path class="cls-18" d="M345.64029,240.4088c0,33.094-19.7074,59.9219-44.0178,59.9219s-44.01779-26.8279-44.01779-59.9219,19.70739-43.011,44.01779-43.011S345.64029,207.3148,345.64029,240.4088Z" transform="translate(-162.3594 -113.177)"/><g class="cls-19"><path class="cls-20" d="M345.64029,240.4088c0,33.094-19.7074,59.9219-44.0178,59.9219s-44.01779-26.8279-44.01779-59.9219,19.70739-43.011,44.01779-43.011S345.64029,207.3148,345.64029,240.4088Z" transform="translate(-162.3594 -113.177)"/></g><ellipse class="cls-21" cx="139.26309" cy="102.0134" rx="30.04141" ry="17.34442"/><path class="cls-21" d="M280.37969,207.5462c11.7317-6.7734,30.7529-6.7732,42.485.0003,4.8459,2.7977,7.6844,6.3139,8.52731,9.9545,1.19759-5.1735-1.64091-10.599-8.52731-14.5748-11.7321-6.7735-30.7533-6.7736-42.485-.0003-6.8859,3.9755-9.72419,9.4006-8.52659,14.5741C272.6958,213.8596,275.53419,210.3436,280.37969,207.5462Z" transform="translate(-162.3594 -113.177)"/><path class="cls-22" d="M266.9459,173.9747l5.4346-9.364a30.30023,30.30023,0,0,0,7.0495-12.1462l5.50379-9.4831-7.9155-4.5445a6.01361,6.01361,0,0,0-.7945-.4561l-.0046-.0026v.0001c-2.2509-1.0655-5.24219-.7803-8.52519,1.1152-6.9979,4.0402-12.6708,13.8658-12.6708,21.946,0,4.0379,1.4167,6.8756,3.7074,8.2003v.0002l.0035.002.0005.0004Z" transform="translate(-162.3594 -113.177)"/><ellipse class="cls-4" cx="275.84609" cy="158.42265" rx="17.91893" ry="10.34553" transform="translate(-161.63845 204.91706) rotate(-59.99854)"/><circle class="cls-23" cx="303.36839" cy="173.79207" r="44.89379" transform="translate(-205.25984 12.30399) rotate(-21.86472)"/><g class="cls-19"><circle class="cls-24" cx="303.36839" cy="173.79207" r="44.89379" transform="translate(-205.25984 12.30399) rotate(-21.86472)"/></g><path class="cls-25" d="M328.49159,204.1533l5.4347-9.3639a30.30245,30.30245,0,0,0,7.0495-12.1463l5.5037-9.4831-7.91549-4.5445a6.008,6.008,0,0,0-.79451-.4561l-.00449-.0026-.00011.0002c-2.2508-1.0656-5.2421-.7804-8.5252,1.1151-6.9979,4.0402-12.6708,13.8658-12.6708,21.946,0,4.0379,1.4168,6.8756,3.7075,8.2004l-.0001.0001.0036.0021.0003.0001Z" transform="translate(-162.3594 -113.177)"/><ellipse class="cls-4" cx="337.39179" cy="188.60125" rx="17.91893" ry="10.34552" transform="translate(-157.00195 273.30514) rotate(-59.99856)"/><path class="cls-5" d="M325.303,196.0207c0-8.0803,5.67289-17.9058,12.67079-21.946a10.66676,10.66676,0,0,1,6.6153-1.668c-2.0445-.4523-4.5234.0203-7.1973,1.564-6.9979,4.0402-12.67079,13.8658-12.67079,21.946,0,5.2806,2.42349,8.5074,6.05559,8.983C327.47049,204.1684,325.303,201.0135,325.303,196.0207Z" transform="translate(-162.3594 -113.177)"/><ellipse class="cls-21" cx="337.39179" cy="188.6013" rx="12.80845" ry="7.39498" transform="matrix(0.50002, -0.86601, 0.86601, 0.50002, -157.00256, 273.30422)"/><path class="cls-21" d="M342.59519,177.0398a7.42419,7.42419,0,0,1,1.4843,4.8775c0,5.7757-4.055,12.799-9.057,15.687a7.23429,7.23429,0,0,1-5.20349,1.1036c1.61869,1.9097,4.405,2.1802,7.57279.3512,5.0021-2.8879,9.0571-9.9112,9.0571-15.687C346.44889,179.8333,344.925,177.587,342.59519,177.0398Z" transform="translate(-162.3594 -113.177)"/><ellipse class="cls-26" cx="276.5564" cy="185.26445" rx="11.39857" ry="19.74289" transform="translate(-212.31885 7.32819) rotate(-22.5999)"/><path class="cls-16" d="M283.52169,187.412c-.4168,3.2085-2.8384,4.2163-5.40869,2.2511a11.21431,11.21431,0,0,1-3.89941-9.3681c.4168-3.2085,2.83841-4.2164,5.4087-2.2511A11.21433,11.21433,0,0,1,283.52169,187.412Z" transform="translate(-162.3594 -113.177)"/><path class="cls-27" d="M277.87559,199.963c-7.07249-5.4076-11.87609-16.9483-10.72929-25.7768.4676-3.5991,1.8523-6.191,3.8074-7.6334-3.6974.3477-6.4969,3.4836-7.2032,8.9203-1.1468,8.8285,3.6569,20.3691,10.72929,25.7768,4.18921,3.2031,8.2344,3.535,11.075,1.4393C283.24809,202.9061,280.59279,202.0406,277.87559,199.963Z" transform="translate(-162.3594 -113.177)"/><path class="cls-16" d="M275.08859,200.9625c-7.07249-5.4077-11.87619-16.9483-10.72929-25.7769.531-4.087,2.2453-6.8729,4.6343-8.1525-2.7051,1.1131-4.668,4.0136-5.2431,8.44-1.1469,8.8286,3.6568,20.3692,10.72929,25.7768,3.797,2.9032,7.4725,3.4404,10.24321,1.9565C282.03369,204.3127,278.61369,203.6577,275.08859,200.9625Z" transform="translate(-162.3594 -113.177)"/><circle class="cls-28" cx="351.70679" cy="236.4446" r="17.04853" transform="translate(-234.41202 128.89598) rotate(-34.67302)"/><g class="cls-19"><circle class="cls-29" cx="351.70679" cy="236.4446" r="17.04853" transform="translate(-234.41202 128.89598) rotate(-34.67302)"/></g><path class="cls-30" d="M378.89749,292.9306c-.9666,8.1012-8.12149,23.4451-14.5969,22.6725s-9.8191-17.3693-8.8524-25.4705,6.9995-14.0421,13.4749-13.2694S379.86409,284.8295,378.89749,292.9306Z" transform="translate(-162.3594 -113.177)"/><path class="cls-31" d="M378.89749,292.9306c-.9666,8.1012-8.12149,23.4451-14.5969,22.6725s-9.8191-17.3693-8.8524-25.4705,6.9995-14.0421,13.4749-13.2694S379.86409,284.8295,378.89749,292.9306Z" transform="translate(-162.3594 -113.177)"/><path class="cls-16" d="M212.4922,240.8094a2.74383,2.74383,0,0,1-1.2744-5.1748l35.2007-18.4209a2.74334,2.74334,0,1,1,2.5439,4.8613l-35.2007,18.4209A2.7265,2.7265,0,0,1,212.4922,240.8094Z" transform="translate(-162.3594 -113.177)"/><path class="cls-32" d="M213.1118,251.035c-7.1543,3.9217-23.799,7.017-26.9337,1.2985s8.4278-18.0853,15.5821-22.007,15.495-2.4651,18.6297,3.2534S220.2661,247.1133,213.1118,251.035Z" transform="translate(-162.3594 -113.177)"/><path class="cls-33" d="M213.1118,251.035c-7.1543,3.9217-23.799,7.017-26.9337,1.2985s8.4278-18.0853,15.5821-22.007,15.495-2.4651,18.6297,3.2534S220.2661,247.1133,213.1118,251.035Z" transform="translate(-162.3594 -113.177)"/><g class="cls-34"><path class="cls-16" d="M179.5616,243.4c-1.0724,8.6203-5.5422,13.7497-10.2416,7.3277-6.0253-8.2339-6.6108-16.2839-6.9606-21.0936V182.6739c0,7.3467,2.4383,14.4353,6.9606,21.0936,9.9325,16.4296,11.111,32.6427,10.2416,39.6325Z" transform="translate(-162.3594 -113.177)"/><path class="cls-16" d="M318.97909,252.007q-5.5599.14985-11.2216.1046c-29.5256-.2419-56.88019-4.5275-79.71079-11.7126-22.8051-6.0925-24.1831,17.7702-16.2237,32.5086,5.6675,10.4946,13.3366,13.3693,16.2237,14.4515,22.8306,7.1852,50.18519,11.4708,79.71079,11.7127q5.6592.04635,11.2216-.1046c26.7956-1.9749,33.8132-27.7104,21.28991-39.7224-3.495-3.3523-10.02561-7.3292-21.28991-7.2378Z" transform="translate(-162.3594 -113.177)"/><path class="cls-16" d="M458.29779,214.5649c-.1296,20.3073-1.3217,24.0039-2.8311,28.6839-6.2764,14.8083-22.554,27.8902-45.3395,37.6621-19.9479,5.8853-25.4573-14.8426-17.3445-30.2112a39.87835,39.87835,0,0,1,17.3445-16.749c22.7855-9.7718,39.0631-22.8538,45.3395-37.6621a24.55814,24.55814,0,0,1,1.724-3.1801l.5105-.0666c.386,1.0854.54581,1.5346.5966,7.0781v14.4449Z" transform="translate(-162.3594 -113.177)"/></g></g></g></svg>
