<?xml version="1.0" encoding="iso-8859-1"?>
<!-- Generator: Adobe Illustrator 19.0.0, SVG Export Plug-In . SVG Version: 6.00 Build 0)  -->
<svg version="1.1" id="Capa_1" xmlns="http://www.w3.org/2000/svg" xmlns:xlink="http://www.w3.org/1999/xlink" x="0px" y="0px"
     viewBox="0 0 512 512" style="enable-background:new 0 0 512 512;" xml:space="preserve">
<g>
    <g>
        <path d="M512,256.99c0-27.29-12.6-52.22-33.74-68.26c4.81-9.71,7.37-20.47,7.37-31.44c0-39.06-31.78-70.83-70.84-70.83
            c-3.81,0-7.62,0.31-11.37,0.92c-6.69-38.43-40.29-67.74-80.61-67.74c-27.56,0-51.99,13.7-66.81,34.65
            c-14.82-20.95-39.25-34.65-66.81-34.65c-40.32,0-73.92,29.31-80.61,67.74c-3.75-0.61-7.56-0.92-11.37-0.92
            c-39.06,0-70.84,31.77-70.84,70.83c0,10.97,2.56,21.73,7.37,31.44C12.6,204.77,0,229.7,0,256.99c0,28.52,14.39,55.12,37.55,70.95
            c-1.74,6.85-2.62,13.9-2.62,21.08c0,44,33.27,80.36,75.97,85.27c10.29,33.85,41.98,58.07,78.29,58.07
            c27.56,0,51.99-13.7,66.81-34.65c14.82,20.95,39.25,34.65,66.81,34.65c36.31,0,68-24.22,78.29-58.07
            c42.7-4.91,75.97-41.27,75.97-85.27c0-7.18-0.88-14.23-2.62-21.08C497.61,312.11,512,285.51,512,256.99z M241,410.54
            c0,28.57-23.24,51.82-51.81,51.82c-25.73,0-47.78-19.18-51.31-44.62l-1.85-13.35l-14.05,0.44c-0.4,0.01-0.81,0.03-1.21,0.03
            c-30.79,0-55.84-25.05-55.84-55.84c0-7.64,1.52-15.04,4.52-22.01l5.72-13.31l-13.11-6.18C42.59,298.33,30,278.5,30,256.99
            c0-21.45,11.97-40.66,31.25-50.13l17.27-8.49l-12.45-14.68c-6.25-7.37-9.7-16.74-9.7-26.4c0-22.51,18.32-40.83,40.84-40.83
            c6.54,0,12.8,1.51,18.6,4.49l24.27,12.45l-2.48-27.16c-0.15-1.71-0.23-3.27-0.23-4.78c0-28.57,23.25-51.82,51.82-51.82
            S241,72.89,241,101.46v40.72h-98.82v41.363h-24.666v30h24.666V241h-24.666v30h24.666v27.457h-24.666v30h24.666v41.363H241V410.54z
             M172.18,339.82V172.18h167.64v167.64H172.18z M449.94,307.52l-13.11,6.18l5.72,13.31c3,6.97,4.52,14.37,4.52,22.01
            c0,30.79-25.05,55.84-55.84,55.84c-0.4,0-0.81-0.02-1.21-0.03l-14.05-0.44l-1.85,13.35c-3.53,25.44-25.58,44.62-51.31,44.62
            c-28.57,0-51.81-23.25-51.81-51.82v-40.72h98.82v-41.363h24.666v-30H369.82V271h24.666v-30H369.82v-27.457h24.666v-30H369.82
            V142.18H271v-40.72c0-28.57,23.24-51.82,51.81-51.82s51.82,23.25,51.82,51.82c0,1.51-0.08,3.07-0.23,4.78l-2.48,27.16l24.27-12.45
            c5.8-2.98,12.06-4.49,18.6-4.49c22.52,0,40.84,18.32,40.84,40.83c0,9.66-3.45,19.03-9.7,26.4l-12.45,14.68l17.27,8.49
            c19.28,9.47,31.25,28.68,31.25,50.13C482,278.5,469.41,298.33,449.94,307.52z"/>
    </g>
</g>
<g>
    <g>
        <path d="M271,199.33h-30h-41.67v113.34H241h30h41.67V199.33H271z M282.67,282.67H271h-30h-11.67v-53.34H241h30h11.67V282.67z"/>
    </g>
</g>
<g>
</g>
<g>
</g>
<g>
</g>
<g>
</g>
<g>
</g>
<g>
</g>
<g>
</g>
<g>
</g>
<g>
</g>
<g>
</g>
<g>
</g>
<g>
</g>
<g>
</g>
<g>
</g>
<g>
</g>
</svg>
