<svg id="Слой_1" data-name="Слой 1" xmlns="http://www.w3.org/2000/svg" viewBox="0 0 137.54346 17.04004"><defs><style>.cls-1{fill:#fff;}.cls-2{fill:#69e781;}</style></defs><title>td</title><path class="cls-1" d="M5.92822,209.71143H.81592v-3.40772H14.73584v3.40772H9.624v13.39209H5.92822Z" transform="translate(-0.81592 -206.18359)"/><path class="cls-1" d="M21.74365,206.18359h3.40821l7.1997,16.91993H28.48779l-1.53613-3.76807h-7.104L18.312,223.10352H14.544Zm3.88819,9.8877-2.23194-5.44775L21.168,216.07129Z" transform="translate(-0.81592 -206.18359)"/><path class="cls-1" d="M37.272,209.71143h-5.1123v-3.40772H46.07959v3.40772H40.96777v13.39209H37.272Z" transform="translate(-0.81592 -206.18359)"/><path class="cls-1" d="M49.48779,206.30371h7.67969a6.628,6.628,0,0,1,4.896,1.70361,5.25482,5.25482,0,0,1,1.44043,3.88819,5.11019,5.11019,0,0,1-3.6001,5.208l4.104,6H59.6875l-3.648-5.376h-2.856v5.376h-3.6958Zm7.43994,8.15967a3.004,3.004,0,0,0,2.0879-.67188,2.20566,2.20566,0,0,0,.74414-1.752q0-2.39941-2.9043-2.3999H53.18359v4.82373Z" transform="translate(-0.81592 -206.18359)"/><path class="cls-1" d="M73.17529,206.18359H76.5835l7.1997,16.91993H79.91943l-1.53613-3.76807h-7.104l-1.53565,3.76807H65.97559Zm3.88819,9.8877-2.23194-5.44775-2.23193,5.44775Z" transform="translate(-0.81592 -206.18359)"/><path class="cls-2" d="M86.95166,206.30371h6.55176a8.98136,8.98136,0,0,1,6.456,2.3999,8.48812,8.48812,0,0,1,0,11.97608,8.98174,8.98174,0,0,1-6.456,2.42383H86.95166Zm6.55176,13.46387a4.96463,4.96463,0,0,0,3.67236-1.39209,5.0782,5.0782,0,0,0-3.67236-8.73584h-2.856v10.12793Z" transform="translate(-0.81592 -206.18359)"/><path class="cls-2" d="M106.29541,206.30371h12.67188v3.2876h-9v3.4082h7.91992v3.28809h-7.91992v3.52783h9.12011v3.28809h-12.792Z" transform="translate(-0.81592 -206.18359)"/><path class="cls-2" d="M121.51172,206.30371h4.07959l4.39209,11.832,4.39209-11.832h3.98389l-6.792,16.91992h-3.26367Z" transform="translate(-0.81592 -206.18359)"/></svg>
