<svg id="Layer_1" data-name="Layer 1" xmlns="http://www.w3.org/2000/svg" viewBox="0 0 496 336"><defs><style>.cls-1{fill:#e73b36;}.cls-2{fill:#f0f7f6;}.cls-3{fill:#3757a6;}.cls-4{fill:#d31c1c;}.cls-5{fill:#dff2ef;}.cls-6{fill:#20448e;}.cls-7{fill:#caeae4;}.cls-8{fill:#103577;}.cls-9{fill:#c41010;}</style></defs><title>russia</title><path class="cls-1" d="M0,224v65.6C0,316.8,21.6,336,48,336H448c26.4,0,48-19.2,48-46.4V224Z"/><path class="cls-2" d="M448,0H48C21.6,0,0,19.2,0,46.4V112H496V46.4C496,19.2,474.4,0,448,0Z"/><rect class="cls-3" y="112" width="496" height="112"/><path class="cls-4" d="M446.4,336c26.4,0,49.6-19.2,49.6-46.4V224H315.2Z"/><path class="cls-5" d="M448,0H48L180.8,112H496V46.4C496,19.2,474.4,0,448,0Z"/><polygon class="cls-6" points="316 224 496 224 496 112 180 112 316 224"/><path class="cls-7" d="M448,0H48L418.4,112H496V46.4C496,19.2,474.4,0,448,0Z"/><polygon class="cls-8" points="496 134.4 496 112 414.4 112 496 134.4"/><path class="cls-9" d="M496,288.8c0,29.6-21.6,47.2-48,47.2H48A47.632,47.632,0,0,1,0,288"/></svg>
